<svg width="274" height="174" viewBox="0 0 274 174" fill="none" xmlns="http://www.w3.org/2000/svg">
<g clip-path="url(#clip0_685_1077)">
<rect width="274" height="174" rx="12" fill="white"/>
<path opacity="0.2" d="M389.455 -39.7033L407.98 -39.1501L439.652 15.7069L30.0216 252.207L-29.901 148.418L-16.2466 140.535L3.39188 143.016L11.062 124.768L30.7005 127.25L48.1124 125.874L65.1067 123.776L78.761 115.893L98.9562 119.339L112.611 111.455L126.265 103.572L133.378 84.3594L147.033 76.4761L157.347 62.8077L174.341 60.7094L187.996 52.8261L201.65 44.9428L211.964 31.2744L232.716 35.6843L242.613 21.2928L256.267 13.4094L269.922 5.52611L293.874 15.48L300.988 -3.73237L321.183 -0.286627L328.297 -19.499L341.951 -27.3824L362.146 -23.9366L380.671 -23.3834L389.455 -39.7033Z" fill="url(#paint0_linear_685_1077)"/>
<path d="M407.794 -39.472L389.301 -39.9697L380.485 -23.7054L361.992 -24.2031L341.84 -27.5743L328.186 -19.6909L321.029 -0.553079L300.877 -3.92427L293.721 15.2136L269.836 5.37703L256.181 13.2604L242.527 21.1437L232.605 35.4924L211.9 31.1634L201.564 44.7937L187.91 52.677L174.255 60.5604L157.283 62.6967L146.947 76.327L133.292 84.2104L126.136 103.348L112.481 111.232L98.8271 119.115L78.6749 115.744L65.0206 123.627L48.0482 125.763L30.6611 127.181L11.062 124.768L3.35247 142.948L-16.2467 140.535L-29.901 148.418" stroke="#3EC775" stroke-width="2" stroke-linecap="round"/>
<g clip-path="url(#clip1_685_1077)">
<path d="M109 87C109 71.536 121.536 59 137 59V59C152.464 59 165 71.536 165 87V87C165 102.464 152.464 115 137 115V115C121.536 115 109 102.464 109 87V87Z" fill="#3EC775"/>
<path d="M151.857 62.6522V111.348M112.238 101.609H161.762M122.143 62.6522L122.143 111.348M112.238 72.3913H161.762M122.143 68.7391L118.429 72.3913M122.143 71.1739L120.905 72.3913M122.143 66.3043L115.952 72.3913M122.143 63.8696L113.476 72.3913M122.143 61.4348L111 72.3913M122.143 59L111 69.9565M151.857 68.7391L155.571 72.3913M151.857 71.1739L153.095 72.3913M151.857 66.3043L158.048 72.3913M151.857 63.8696L160.524 72.3913M151.857 61.4348L163 72.3913M151.857 59L163 69.9565M151.857 105.261L155.571 101.609M151.857 102.826L153.095 101.609M151.857 107.696L158.048 101.609M151.857 110.13L160.524 101.609M151.857 112.565L163 101.609M151.857 115L163 104.043M122.143 105.261L118.429 101.609M122.143 102.826L120.905 101.609M122.143 107.696L115.952 101.609M122.143 110.13L113.476 101.609M122.143 112.565L111 101.609M122.143 115L111 104.043" stroke="url(#paint1_radial_685_1077)" stroke-opacity="0.8" stroke-width="0.5"/>
<path d="M137 90C137.796 90 138.559 89.6839 139.121 89.1213C139.684 88.5587 140 87.7956 140 87C140 86.2044 139.684 85.4413 139.121 84.8787C138.559 84.3161 137.796 84 137 84C136.204 84 135.441 84.3161 134.879 84.8787C134.316 85.4413 134 86.2044 134 87C134 87.7956 134.316 88.5587 134.879 89.1213C135.441 89.6839 136.204 90 137 90Z" fill="white"/>
<path fill-rule="evenodd" clip-rule="evenodd" d="M126.323 86.447C127.811 81.976 132.028 78.75 137.001 78.75C141.971 78.75 146.186 81.973 147.676 86.44C147.796 86.802 147.796 87.192 147.676 87.553C146.189 92.024 141.971 95.25 136.999 95.25C132.029 95.25 127.813 92.027 126.324 87.56C126.204 87.1987 126.204 86.8083 126.324 86.447H126.323ZM142.25 87C142.25 88.3924 141.697 89.7277 140.712 90.7123C139.728 91.6969 138.392 92.25 137 92.25C135.608 92.25 134.272 91.6969 133.288 90.7123C132.303 89.7277 131.75 88.3924 131.75 87C131.75 85.6076 132.303 84.2723 133.288 83.2877C134.272 82.3031 135.608 81.75 137 81.75C138.392 81.75 139.728 82.3031 140.712 83.2877C141.697 84.2723 142.25 85.6076 142.25 87Z" fill="white"/>
</g>
<path d="M15.3263 8.08008V8.91341H13.243V13.4967H17.8263V11.4134H18.6597V13.9134C18.6597 14.1435 18.4731 14.3301 18.243 14.3301H12.8263C12.5962 14.3301 12.4097 14.1435 12.4097 13.9134V8.49674C12.4097 8.26663 12.5962 8.08008 12.8263 8.08008H15.3263ZM19.9097 6.83008V10.1634H19.0763L19.0763 8.25216L15.8293 11.4997L15.24 10.9105L18.4867 7.66341H16.5763V6.83008H19.9097Z" fill="#6F7286"/>
<path d="M24.9837 7.83826L26.4426 12.1075H26.5015L27.9604 7.83826H28.8153L26.9289 13.0801H26.0152L24.1289 7.83826H24.9837ZM30.8436 7.83826V13.0801H30.0528V7.83826H30.8436ZM35.3348 9.21526C35.3075 8.97296 35.1949 8.78527 34.997 8.65217C34.7991 8.51737 34.5499 8.44997 34.2496 8.44997C34.0346 8.44997 33.8486 8.4841 33.6917 8.55235C33.5347 8.6189 33.4127 8.71104 33.3256 8.82878C33.2403 8.94481 33.1977 9.07705 33.1977 9.2255C33.1977 9.35006 33.2267 9.45756 33.2847 9.54799C33.3444 9.63843 33.4221 9.71436 33.5176 9.77579C33.6149 9.83551 33.719 9.88584 33.8299 9.9268C33.9408 9.96604 34.0474 9.99846 34.1498 10.0241L34.6617 10.1571C34.8289 10.1981 35.0004 10.2536 35.1762 10.3235C35.3519 10.3935 35.5149 10.4856 35.665 10.5999C35.8152 10.7143 35.9363 10.8559 36.0285 11.0248C36.1223 11.1937 36.1692 11.3959 36.1692 11.6314C36.1692 11.9283 36.0924 12.1919 35.9389 12.4223C35.787 12.6526 35.566 12.8344 35.276 12.9675C34.9876 13.1006 34.6387 13.1671 34.2291 13.1671C33.8367 13.1671 33.4971 13.1048 33.2105 12.9803C32.9238 12.8557 32.6994 12.6791 32.5373 12.4504C32.3752 12.2201 32.2856 11.9471 32.2686 11.6314H33.062C33.0774 11.8208 33.1388 11.9786 33.2463 12.1049C33.3555 12.2295 33.4946 12.3225 33.6635 12.3839C33.8341 12.4436 34.021 12.4735 34.224 12.4735C34.4476 12.4735 34.6463 12.4385 34.8204 12.3685C34.9961 12.2969 35.1343 12.1979 35.235 12.0716C35.3357 11.9437 35.386 11.7944 35.386 11.6237C35.386 11.4685 35.3417 11.3413 35.2529 11.2424C35.1659 11.1434 35.0473 11.0615 34.8972 10.9967C34.7487 10.9318 34.5806 10.8747 34.393 10.8252L33.7736 10.6562C33.3538 10.5419 33.0211 10.3739 32.7754 10.152C32.5314 9.93021 32.4094 9.63672 32.4094 9.27157C32.4094 8.96955 32.4913 8.70592 32.6551 8.48069C32.8189 8.25545 33.0407 8.08056 33.3205 7.95599C33.6004 7.82973 33.916 7.76659 34.2675 7.76659C34.6225 7.76659 34.9356 7.82887 35.2069 7.95343C35.4799 8.078 35.6949 8.24948 35.8519 8.46789C36.0088 8.68459 36.0907 8.93372 36.0976 9.21526H35.3348ZM38.3857 7.83826V13.0801H37.5948V7.83826H38.3857ZM44.5713 10.4592C44.5713 11.0188 44.4689 11.5 44.2642 11.9027C44.0594 12.3037 43.7787 12.6125 43.4221 12.8292C43.0672 13.0442 42.6636 13.1517 42.2114 13.1517C41.7576 13.1517 41.3523 13.0442 40.9957 12.8292C40.6408 12.6125 40.3609 12.3028 40.1562 11.9002C39.9514 11.4975 39.849 11.0171 39.849 10.4592C39.849 9.89949 39.9514 9.41916 40.1562 9.01818C40.3609 8.61549 40.6408 8.30664 40.9957 8.09165C41.3523 7.87494 41.7576 7.76659 42.2114 7.76659C42.6636 7.76659 43.0672 7.87494 43.4221 8.09165C43.7787 8.30664 44.0594 8.61549 44.2642 9.01818C44.4689 9.41916 44.5713 9.89949 44.5713 10.4592ZM43.7881 10.4592C43.7881 10.0326 43.719 9.67341 43.5808 9.38163C43.4443 9.08814 43.2566 8.86632 43.0177 8.71616C42.7805 8.5643 42.5118 8.48837 42.2114 8.48837C41.9094 8.48837 41.6398 8.5643 41.4026 8.71616C41.1655 8.86632 40.9778 9.08814 40.8396 9.38163C40.7031 9.67341 40.6348 10.0326 40.6348 10.4592C40.6348 10.8857 40.7031 11.2458 40.8396 11.5393C40.9778 11.8311 41.1655 12.0529 41.4026 12.2047C41.6398 12.3549 41.9094 12.43 42.2114 12.43C42.5118 12.43 42.7805 12.3549 43.0177 12.2047C43.2566 12.0529 43.4443 11.8311 43.5808 11.5393C43.719 11.2458 43.7881 10.8857 43.7881 10.4592ZM50.2687 7.83826V13.0801H49.5418L46.8773 9.23574H46.8287V13.0801H46.0378V7.83826H46.7698L49.4368 11.6877H49.4855V7.83826H50.2687ZM54.7336 13.0801H53.8941L55.7804 7.83826L56.6942 7.83826L58.5805 13.0801H57.741L56.259 8.79038H56.2181L54.7336 13.0801ZM54.8744 11.0274H57.5976V11.6928H54.8744V11.0274ZM64.0488 7.83826V13.0801H63.3219L60.6575 9.23574H60.6088V13.0801H59.818V7.83826H60.55L63.2169 11.6877H63.2656V7.83826H64.0488ZM66.1258 13.0801H65.2862L67.1726 7.83826H68.0863L69.9727 13.0801H69.1332L67.6512 8.79038H67.6103L66.1258 13.0801ZM66.2665 11.0274H68.9898V11.6928H66.2665V11.0274ZM71.2101 13.0801V7.83826H72.001V12.3993H74.3762V13.0801H71.2101ZM74.9674 7.83826H75.8658L77.2351 10.2211H77.2914L78.6607 7.83826H79.5591L77.6574 11.0223V13.0801H76.8691V11.0223L74.9674 7.83826ZM83.6453 9.21526C83.618 8.97296 83.5054 8.78527 83.3074 8.65217C83.1095 8.51737 82.8604 8.44997 82.5601 8.44997C82.3451 8.44997 82.1591 8.4841 82.0021 8.55235C81.8451 8.6189 81.7231 8.71104 81.6361 8.82878C81.5508 8.94481 81.5081 9.07705 81.5081 9.2255C81.5081 9.35006 81.5371 9.45756 81.5951 9.54799C81.6549 9.63843 81.7325 9.71436 81.8281 9.77579C81.9253 9.83551 82.0294 9.88584 82.1403 9.9268C82.2512 9.96604 82.3579 9.99846 82.4602 10.0241L82.9721 10.1571C83.1394 10.1981 83.3109 10.2536 83.4866 10.3235C83.6624 10.3935 83.8253 10.4856 83.9755 10.5999C84.1256 10.7143 84.2468 10.8559 84.3389 11.0248C84.4328 11.1937 84.4797 11.3959 84.4797 11.6314C84.4797 11.9283 84.4029 12.1919 84.2493 12.4223C84.0975 12.6526 83.8765 12.8344 83.5864 12.9675C83.2981 13.1006 82.9491 13.1671 82.5396 13.1671C82.1471 13.1671 81.8076 13.1048 81.5209 12.9803C81.2343 12.8557 81.0099 12.6791 80.8478 12.4504C80.6857 12.2201 80.5961 11.9471 80.579 11.6314H81.3725C81.3878 11.8208 81.4493 11.9786 81.5568 12.1049C81.666 12.2295 81.805 12.3225 81.9739 12.3839C82.1446 12.4436 82.3314 12.4735 82.5345 12.4735C82.758 12.4735 82.9568 12.4385 83.1308 12.3685C83.3066 12.2969 83.4448 12.1979 83.5455 12.0716C83.6461 11.9437 83.6965 11.7944 83.6965 11.6237C83.6965 11.4685 83.6521 11.3413 83.5634 11.2424C83.4764 11.1434 83.3578 11.0615 83.2076 10.9967C83.0592 10.9318 82.8911 10.8747 82.7034 10.8252L82.084 10.6562C81.6643 10.5419 81.3315 10.3739 81.0858 10.152C80.8418 9.93021 80.7198 9.63672 80.7198 9.27157C80.7198 8.96955 80.8017 8.70592 80.9655 8.48069C81.1293 8.25545 81.3511 8.08056 81.631 7.95599C81.9108 7.82973 82.2265 7.76659 82.578 7.76659C82.9329 7.76659 83.246 7.82887 83.5173 7.95343C83.7903 8.078 84.0053 8.24948 84.1623 8.46789C84.3193 8.68459 84.4012 8.93372 84.408 9.21526H83.6453ZM86.6962 7.83826V13.0801H85.9053V7.83826H86.6962ZM91.1874 9.21526C91.1601 8.97296 91.0474 8.78527 90.8495 8.65217C90.6516 8.51737 90.4025 8.44997 90.1021 8.44997C89.8871 8.44997 89.7012 8.4841 89.5442 8.55235C89.3872 8.6189 89.2652 8.71104 89.1782 8.82878C89.0929 8.94481 89.0502 9.07705 89.0502 9.2255C89.0502 9.35006 89.0792 9.45756 89.1372 9.54799C89.1969 9.63843 89.2746 9.71436 89.3701 9.77579C89.4674 9.83551 89.5715 9.88584 89.6824 9.9268C89.7933 9.96604 89.8999 9.99846 90.0023 10.0241L90.5142 10.1571C90.6814 10.1981 90.8529 10.2536 91.0287 10.3235C91.2044 10.3935 91.3674 10.4856 91.5175 10.5999C91.6677 10.7143 91.7888 10.8559 91.881 11.0248C91.9748 11.1937 92.0218 11.3959 92.0218 11.6314C92.0218 11.9283 91.945 12.1919 91.7914 12.4223C91.6395 12.6526 91.4186 12.8344 91.1285 12.9675C90.8401 13.1006 90.4912 13.1671 90.0817 13.1671C89.6892 13.1671 89.3497 13.1048 89.063 12.9803C88.7763 12.8557 88.5519 12.6791 88.3898 12.4504C88.2277 12.2201 88.1382 11.9471 88.1211 11.6314H88.9145C88.9299 11.8208 88.9913 11.9786 89.0988 12.1049C89.208 12.2295 89.3471 12.3225 89.516 12.3839C89.6867 12.4436 89.8735 12.4735 90.0765 12.4735C90.3001 12.4735 90.4989 12.4385 90.6729 12.3685C90.8487 12.2969 90.9869 12.1979 91.0875 12.0716C91.1882 11.9437 91.2386 11.7944 91.2386 11.6237C91.2386 11.4685 91.1942 11.3413 91.1055 11.2424C91.0184 11.1434 90.8998 11.0615 90.7497 10.9967C90.6012 10.9318 90.4332 10.8747 90.2455 10.8252L89.6261 10.6562C89.2063 10.5419 88.8736 10.3739 88.6279 10.152C88.3839 9.93021 88.2619 9.63672 88.2619 9.27157C88.2619 8.96955 88.3438 8.70592 88.5076 8.48069C88.6714 8.25545 88.8932 8.08056 89.173 7.95599C89.4529 7.82973 89.7686 7.76659 90.1201 7.76659C90.475 7.76659 90.7881 7.82887 91.0594 7.95343C91.3324 8.078 91.5474 8.24948 91.7044 8.46789C91.8614 8.68459 91.9433 8.93372 91.9501 9.21526H91.1874Z" fill="#6F7286"/>
<path d="M257.84 10.0919L255.777 12.1543L255.188 11.565L257.84 8.91337L260.491 11.565L259.902 12.1543L257.84 10.0919Z" fill="#667185"/>
</g>
<defs>
<linearGradient id="paint0_linear_685_1077" x1="174.914" y1="30.168" x2="234.837" y2="133.957" gradientUnits="userSpaceOnUse">
<stop stop-color="#3EC775"/>
<stop offset="1" stop-color="#3EC775" stop-opacity="0"/>
</linearGradient>
<radialGradient id="paint1_radial_685_1077" cx="0" cy="0" r="1" gradientUnits="userSpaceOnUse" gradientTransform="translate(137 85.2051) rotate(90) scale(39.8462 37)">
<stop stop-color="white"/>
<stop offset="1" stop-color="white" stop-opacity="0"/>
</radialGradient>
<clipPath id="clip0_685_1077">
<rect width="274" height="174" rx="12" fill="white"/>
</clipPath>
<clipPath id="clip1_685_1077">
<path d="M109 87C109 71.536 121.536 59 137 59V59C152.464 59 165 71.536 165 87V87C165 102.464 152.464 115 137 115V115C121.536 115 109 102.464 109 87V87Z" fill="white"/>
</clipPath>
</defs>
</svg>
