<svg width="274" height="175" viewBox="0 0 274 175" fill="none" xmlns="http://www.w3.org/2000/svg">
<g filter="url(#filter0_d_688_1085)">
<g clip-path="url(#clip0_688_1085)">
<rect y="5.26758" width="188.605" height="173.518" rx="11.1599" transform="rotate(-2.46282 0 5.26758)" fill="white"/>
<g clip-path="url(#clip1_688_1085)">
<path d="M15.66 12.6823L15.6958 13.5148L13.6144 13.6042L13.8111 18.1833L18.3902 17.9866L18.3008 15.9052L19.1333 15.8694L19.2407 18.3671C19.2505 18.5971 19.0722 18.7914 18.8423 18.8013L13.4306 19.0338C13.2007 19.0437 13.0063 18.8653 12.9964 18.6354L12.7639 13.2237C12.754 12.9938 12.9324 12.7994 13.1623 12.7896L15.66 12.6823ZM20.1855 11.2367L20.3285 14.5669L19.496 14.6027L19.4139 12.6932L16.3093 16.0771L15.6953 15.5137L18.7996 12.1303L16.891 12.2123L16.8552 11.3798L20.1855 11.2367Z" fill="#6F7286"/>
<path d="M27.7553 13.2987C27.7176 13.0578 27.597 12.8751 27.3936 12.7507C27.19 12.6245 26.9383 12.5678 26.6382 12.5807C26.4234 12.5899 26.2391 12.632 26.0852 12.707C25.9312 12.7802 25.8132 12.8775 25.7314 12.9988C25.6511 13.1184 25.6142 13.2524 25.6205 13.4007C25.6259 13.5251 25.6595 13.6313 25.7213 13.7191C25.7849 13.8069 25.8657 13.8795 25.9638 13.9367C26.0635 13.9922 26.1697 14.038 26.2822 14.0742C26.3947 14.1086 26.5027 14.1365 26.6061 14.1576L27.1232 14.2686C27.292 14.3024 27.4657 14.3504 27.6443 14.4128C27.8229 14.4751 27.9897 14.5602 28.1446 14.6679C28.2995 14.7757 28.4266 14.912 28.5259 15.0768C28.6269 15.2416 28.6825 15.4416 28.6926 15.6768C28.7054 15.9735 28.64 16.2401 28.4964 16.4769C28.3546 16.7135 28.1416 16.9046 27.8575 17.05C27.5751 17.1953 27.2294 17.2768 26.8202 17.2944C26.4281 17.3112 26.0862 17.2636 25.7945 17.1514C25.5027 17.0393 25.271 16.8725 25.0992 16.651C24.9274 16.4278 24.8262 16.1589 24.7956 15.8443L25.5883 15.8102C25.6117 15.9988 25.6799 16.1538 25.7927 16.2754C25.9072 16.3951 26.0501 16.4821 26.2215 16.5362C26.3945 16.5885 26.5825 16.6103 26.7853 16.6016C27.0087 16.592 27.2058 16.5485 27.3766 16.4712C27.5492 16.392 27.683 16.2872 27.7782 16.1568C27.8732 16.0246 27.9171 15.8732 27.9098 15.7028C27.9031 15.5476 27.8534 15.4225 27.7605 15.3275C27.6693 15.2323 27.5473 15.1556 27.3945 15.0973C27.2434 15.0389 27.073 14.989 26.8834 14.9476L26.2573 14.8054C25.833 14.7092 25.4934 14.5556 25.2384 14.3445C24.9851 14.1333 24.8506 13.8454 24.8349 13.4805C24.8219 13.1788 24.8925 12.9119 25.0464 12.6798C25.2004 12.4478 25.4145 12.2635 25.6888 12.1271C25.9629 11.9889 26.2756 11.9123 26.6268 11.8972C26.9814 11.882 27.2969 11.9307 27.5733 12.0435C27.8514 12.1563 28.0735 12.3184 28.2397 12.5298C28.4059 12.7396 28.4984 12.985 28.5173 13.266L27.7553 13.2987ZM30.1791 17.063L29.9541 11.826L30.7442 11.792L30.8517 14.2929L30.9156 14.2902L33.0047 11.6949L33.9995 11.6522L31.9886 14.1006L34.2321 16.8888L33.2809 16.9297L31.4875 14.6627L30.8992 15.4001L30.9692 17.029L30.1791 17.063ZM35.4409 16.8369L35.216 11.5999L38.4993 11.4589L38.5285 12.1391L36.0353 12.2462L36.1039 13.8418L38.4258 13.7421L38.4549 14.4197L36.133 14.5195L36.2019 16.1228L38.7258 16.0143L38.755 16.6945L35.4409 16.8369ZM39.8058 12.0842L39.7765 11.404L43.8296 11.2299L43.8588 11.9101L42.2248 11.9803L42.4206 16.5371L41.633 16.5709L41.4372 12.0141L39.8058 12.0842ZM49.4031 12.6966L48.6053 12.7309C48.5673 12.5617 48.5037 12.4142 48.4146 12.2882C48.3255 12.1622 48.2185 12.0567 48.0936 11.9715C47.9687 11.8864 47.8302 11.824 47.6782 11.7844C47.5279 11.7447 47.3692 11.7285 47.2022 11.7357C46.9004 11.7486 46.6335 11.8361 46.4013 11.9981C46.1709 12.16 45.9929 12.3905 45.8674 12.6897C45.7437 12.9887 45.6909 13.3497 45.709 13.7725C45.7273 14.1986 45.811 14.5554 45.9599 14.8428C46.1106 15.1301 46.3085 15.3436 46.5536 15.4833C46.7987 15.6231 47.0705 15.6866 47.3688 15.6738C47.5342 15.6667 47.69 15.6378 47.8364 15.5871C47.9845 15.5346 48.1171 15.4614 48.2344 15.3676C48.3516 15.2737 48.4492 15.1611 48.5273 15.0297C48.6069 14.8964 48.6594 14.7456 48.6846 14.5771L49.4825 14.5454C49.451 14.8047 49.3785 15.0452 49.265 15.2669C49.1532 15.4869 49.0052 15.6795 48.821 15.8445C48.6384 16.0078 48.4271 16.1373 48.187 16.233C47.9469 16.3287 47.6828 16.3827 47.3947 16.3951C46.9412 16.4146 46.5326 16.3245 46.1687 16.125C45.8049 15.9237 45.512 15.6263 45.2901 15.2328C45.07 14.8392 44.9479 14.3636 44.924 13.8062C44.9 13.247 44.9816 12.7627 45.169 12.3533C45.3563 11.9422 45.6226 11.6217 45.968 11.3916C46.3132 11.1599 46.7118 11.0343 47.1635 11.0149C47.4414 11.003 47.7022 11.0319 47.946 11.1017C48.1915 11.1697 48.4138 11.2763 48.6131 11.4215C48.8122 11.5649 48.9796 11.7439 49.1152 11.9584C49.2507 12.1711 49.3467 12.4172 49.4031 12.6966ZM50.9805 16.1693L50.7555 10.9323L51.5456 10.8984L51.6434 13.1742L54.2542 13.0621L54.1565 10.7862L54.9492 10.7522L55.1741 15.9891L54.3814 16.0232L54.2833 13.7397L51.6725 13.8519L51.7706 16.1354L50.9805 16.1693ZM57.3701 10.6481L57.5951 15.8851L56.8049 15.9191L56.5799 10.6821L57.3701 10.6481ZM63.2278 10.3965L63.4528 15.6335L62.7265 15.6647L59.8996 11.9382L59.851 11.9403L60.016 15.7811L59.2258 15.8151L59.0008 10.5781L59.7322 10.5467L62.5619 14.2781L62.6105 14.276L62.4453 10.4301L63.2278 10.3965ZM68.4757 11.8285C68.4196 11.6755 68.3471 11.5395 68.2583 11.4203C68.1712 11.2994 68.0686 11.1979 67.9506 11.1159C67.8326 11.0321 67.6993 10.9704 67.5507 10.9307C67.4038 10.8908 67.2435 10.8747 67.0696 10.8822C66.7747 10.8948 66.512 10.9821 66.2815 11.144C66.0511 11.3059 65.8731 11.5364 65.7476 11.8356C65.6238 12.133 65.5709 12.493 65.5891 12.9158C65.6073 13.3403 65.6918 13.6962 65.8425 13.9835C65.9932 14.2707 66.1919 14.4851 66.4388 14.6265C66.6857 14.7679 66.9626 14.832 67.2694 14.8188C67.5541 14.8066 67.7997 14.738 68.0061 14.613C68.2142 14.4879 68.3717 14.3172 68.4785 14.1008C68.587 13.8826 68.635 13.6295 68.6227 13.3414L68.8289 13.371L67.3304 13.4354L67.3024 12.7833L69.3609 12.6949L69.3865 13.2907C69.4054 13.7305 69.328 14.1164 69.1544 14.4483C68.9824 14.7785 68.7357 15.0385 68.4142 15.2282C68.0945 15.4178 67.7232 15.5218 67.3004 15.5399C66.8265 15.5603 66.4059 15.469 66.0385 15.2662C65.6728 15.0633 65.3816 14.7658 65.165 14.3738C64.9482 13.98 64.828 13.507 64.8043 12.9547C64.7863 12.537 64.8282 12.1595 64.9298 11.8221C65.0315 11.4846 65.1821 11.1955 65.3819 10.9547C65.5832 10.712 65.8236 10.5232 66.103 10.3883C66.3841 10.2515 66.6942 10.1758 67.0335 10.1613C67.3165 10.1491 67.5816 10.1796 67.829 10.2526C68.0781 10.3256 68.3014 10.4347 68.4989 10.5799C68.6981 10.7251 68.8654 10.9006 69.0006 11.1066C69.1358 11.3109 69.231 11.5399 69.2863 11.7937L68.4757 11.8285Z" fill="#6F7286"/>
<path d="M172.72 7.94835L170.748 10.0974L170.134 9.53394L172.669 6.77089L175.432 9.30631L174.869 9.92031L172.72 7.94835Z" fill="#667185"/>
</g>
<circle cx="98.3076" cy="96.3787" r="20.9731" transform="rotate(-2.46 98.3076 96.3787)" stroke="#E8EDF2" stroke-width="0.681625"/>
<circle cx="98.3077" cy="96.378" r="52.4327" transform="rotate(-2.46 98.3077 96.378)" stroke="#E8EDF2" stroke-width="0.681625"/>
<rect x="44.123" y="56.7217" width="104.865" height="83.8923" rx="5.24327" transform="rotate(-2.46 44.123 56.7217)" stroke="#E8EDF2" stroke-width="0.681625"/>
<rect x="137.965" y="42.1934" width="104.865" height="83.8923" rx="5.24327" transform="rotate(87.54 137.965 42.1934)" stroke="#E8EDF2" stroke-width="0.681625"/>
<rect x="143.428" y="47.2061" width="94.3789" height="94.3789" rx="5.24327" transform="rotate(87.54 143.428 47.2061)" stroke="#E8EDF2" stroke-width="0.681625"/>
<mask id="mask0_688_1085" style="mask-type:alpha" maskUnits="userSpaceOnUse" x="50" y="50" width="97" height="92">
<path d="M98.7539 95.9997C89.8348 101.724 78.0124 105.807 67.3303 104.456C53.4812 102.687 47.5105 89.2585 52.137 76.7431C58.0497 60.5981 76.7962 55.6359 92.1995 54.2532L140.575 50.0889L141.523 61.1029C121.262 61.6552 96.9572 75.4578 98.7257 96.0022C100.494 116.546 76.2252 130.318 55.964 130.87L56.9121 141.884L105.287 137.72C120.686 136.281 139.439 131.403 145.387 115.227C149.986 102.714 144.012 89.2473 130.193 87.5045C119.502 86.1544 107.68 90.2465 98.7695 95.9605L98.7719 95.9887L98.7539 95.9997Z" fill="#FDB229"/>
</mask>
<g mask="url(#mask0_688_1085)">
<path d="M47.8882 64.4894C60.1294 60.0188 72.3905 55.5961 84.8862 51.8765C90.3469 50.2511 94.5011 49.1139 99.9236 47.8668C101.2 47.5732 102.789 46.216 103.774 47.0798C104.646 47.8444 101.662 48.0442 100.569 48.4332C96.2101 49.9854 91.8111 51.4241 87.4255 52.9009C60.9949 61.8008 -18.2153 88.723 8.35683 80.2549C39.7956 70.2358 70.7065 58.5285 102.303 48.9894C110.859 46.4063 113.319 46.0936 103.996 50.5254C87.8256 58.2114 71.038 64.8969 54.0949 70.6668C50.4639 71.9033 46.7921 73.0196 43.109 74.0911C41.7763 74.4788 40.4411 74.9705 39.0549 75.0422C38.3401 75.0792 40.3506 74.4252 41.0296 74.1987C47.7703 71.9503 60.7624 68.1425 66.5116 66.5046C80.0094 62.6591 94.7442 58.6768 108.326 55.1655C113.892 53.7266 119.471 52.3382 125.056 50.9734C128.517 50.1276 131.969 49.2321 135.463 48.5337C136.212 48.384 138.283 47.8855 137.753 48.4353C136.707 49.5188 135.078 49.8295 133.678 50.3837C130.013 51.8342 126.307 53.1843 122.573 54.4438C105.814 60.0957 88.7343 64.5844 71.4525 68.3215C67.9938 69.0694 64.5177 69.7428 61.0269 70.3232C59.77 70.5322 57.5107 71.9288 57.2218 70.6878C56.9302 69.4353 59.5436 69.5741 60.7466 69.1196C65.6913 67.2517 79.7786 62.5953 83.3933 61.3828C89.9265 59.1911 106.322 53.684 113.175 51.4199C116.625 50.2797 120.066 49.1061 123.541 48.0405C125.774 47.3557 130.232 46.03 125.128 48.3927C120.609 50.4851 100.327 59.0239 98.4358 59.8316C78.2087 68.4706 57.9622 77.0941 38.1763 86.7157C34.548 88.4801 30.9207 90.2564 27.3986 92.2243C26.4492 92.7547 23.9215 93.5449 24.7959 94.1916C25.8926 95.0027 27.4806 93.6679 28.777 93.2436C34.2634 91.448 50.9735 85.0764 55.0502 83.5412C67.618 78.8081 77.1298 75.1346 89.7622 70.6974C94.256 69.119 98.775 67.612 103.305 66.1396C106.228 65.1894 109.164 64.2777 112.118 63.4301C112.826 63.227 114.871 62.5452 114.284 62.9897C113.319 63.7199 112.057 63.9422 110.914 64.341C107.796 65.4298 104.662 66.4772 101.505 67.4508C87.5221 71.7642 73.3319 75.3726 59.0156 78.3984C56.3626 78.9591 53.7032 79.5097 51.0176 79.8846C50.4705 79.9609 48.8827 80.0122 49.3663 79.7453C51.4378 78.6017 53.7577 77.9804 55.973 77.1489C64.303 74.0221 82.9693 67.3135 89.9406 64.849C108.33 58.3481 126.808 51.6409 145.65 46.5239C147.284 46.0801 149.025 45.0279 150.636 45.5511C151.639 45.877 148.937 46.8245 147.986 47.2827C144.279 49.0703 140.471 50.6408 136.693 52.2742C110.802 63.4685 84.7177 74.23 58.6607 85.0313C58.4132 85.1339 57.6714 85.4416 57.9251 85.3554C59.2051 84.9207 60.4646 84.4276 61.7418 83.9849C73.2067 80.0107 84.7612 76.3064 96.3578 72.7358C137.914 59.9405 87.7941 75.4442 115.581 67.0015C116.363 66.7637 118.723 66.2226 117.905 66.2161C116.625 66.2059 115.391 66.7004 114.145 66.9901C111.21 67.6723 108.285 68.398 105.362 69.1315C93.3791 72.1387 88.252 73.6009 75.9187 76.5388C71.1386 77.6774 66.3442 78.7568 61.544 79.8071C56.6583 80.8761 51.8081 82.2904 46.8249 82.7154C43.8861 82.966 52.4642 80.9837 55.2983 80.1668C68.4369 76.3798 81.5361 72.3813 94.8118 69.0912C95.1146 69.0161 107.985 65.8356 110.681 66.1426C111.131 66.1938 110.624 67.1739 110.252 67.4315C107.297 69.4749 94.2027 75.0319 93.1406 75.5064C82.4758 80.2714 77.5681 82.3929 67.1625 87.3991C64.0128 88.9144 60.8788 90.4637 57.7749 92.0709C51.4924 95.3241 55.9948 93.407 58.9109 92.1318C71.4731 86.6387 83.9115 80.8801 96.5626 75.5879C98.8417 74.6345 101.139 73.7253 103.436 72.8156C103.728 72.6999 104.619 72.3946 104.328 72.5122C103.007 73.0456 101.675 73.552 100.345 74.0635C93.0312 76.8769 88.1239 78.7298 80.6133 81.5654C77.1543 82.8714 73.6906 84.1652 70.2333 85.4756C66.5786 86.8608 62.7987 87.9813 59.3212 89.7651C57.4317 90.7343 63.3977 88.5664 65.3998 87.8587C75.4196 84.3168 85.3532 80.5492 95.4962 77.3613C97.8198 76.631 105.697 74.2853 109.011 73.6546C113.288 72.8406 100.907 76.8418 96.8487 78.4183C89.8372 81.1419 85.0459 83.1411 78.2788 86.3731C75.8289 87.5431 73.4024 88.7648 71.0152 90.0579C69.5085 90.874 68.0248 91.7393 66.604 92.6971C65.9808 93.1172 64.7007 93.4541 64.9035 94.1778C65.2277 95.3345 98.1654 82.8835 100.614 82.0133C102.936 81.1879 105.261 80.3679 107.603 79.6016C108.489 79.3118 109.363 78.8484 110.294 78.8461C110.806 78.8449 109.424 79.3909 108.956 79.5983C105.804 80.9949 94.0597 85.7217 92.3388 86.418C82.7809 90.2852 76.1133 92.9458 66.6086 96.8466C63.658 98.0576 60.7113 99.2782 57.7722 100.517C56.3479 101.117 54.8998 101.669 53.5189 102.363C53.146 102.551 54.3348 102.18 54.73 102.046C64.0492 98.8826 73.2615 95.5206 82.7005 92.7002C86.9253 91.4378 91.1731 90.2509 95.4346 89.1185C99.0598 88.1552 107.763 85.8913 112.346 85.3208C117.28 84.7067 110.806 87.1249 110.635 87.195C100.982 91.1427 90.9052 94.0988 81.04 97.4515C78.8539 98.1944 69.5164 101.356 66.439 102.686C65.9205 102.91 64.7383 103.114 65.0161 103.606C65.3369 104.174 66.3252 103.706 66.9733 103.631C68.8153 103.419 70.6407 103.078 72.4652 102.747C78.4298 101.664 82.9354 100.694 88.882 99.1437C95.7628 97.3501 103.185 95.4939 109.632 92.3658C109.769 92.2994 109.891 91.8998 109.741 91.9224C108.429 92.1198 107.162 92.5489 105.89 92.9288C98.0211 95.2804 90.2324 97.9566 82.4232 100.5C80.5426 101.112 74.9698 102.534 76.9352 102.756C78.2541 102.904 79.5922 102.698 80.912 102.557C87.48 101.857 95.7363 100.492 102.032 99.2917C110.72 97.6353 119.856 95.525 128.495 93.5846C132.933 92.588 146.268 89.765 141.769 90.4276C137.007 91.1289 130.571 92.4672 126.274 93.3693C114.105 95.9241 101.85 98.4913 89.8327 101.699C88.3904 102.084 86.7907 102.226 85.5785 103.097C85.118 103.428 86.6412 103.58 87.2082 103.585C89.823 103.606 92.4349 103.375 95.0422 103.175C104.424 102.457 111.481 101.616 120.939 100.234C130.689 98.8101 135.895 97.8183 145.208 96.0201C145.218 96.0181 161.161 92.6385 147.215 96.1258C137.396 98.5811 126.374 101.088 116.623 103.18C109.809 104.643 102.981 106.046 96.1475 107.414C90.1548 108.614 84.1474 109.741 78.1437 110.884C75.3924 111.409 72.6117 111.788 69.8827 112.418C68.4486 112.749 72.7975 112.008 74.2519 111.783C79.9738 110.896 85.6913 109.98 91.4112 109.08C108.911 106.328 126.477 103.802 143.919 100.691C150.052 99.5974 144.536 100.138 142.094 100.331C126.226 101.585 110.376 102.88 94.4865 103.857C86.4525 104.351 78.4084 104.685 70.379 105.249C69.5238 105.309 66.9782 105.386 67.8228 105.533C69.2429 105.78 70.7058 105.577 72.1472 105.557C75.2555 105.515 78.3636 105.447 81.4706 105.349C91.1068 105.042 100.258 104.614 109.898 104.091C114.093 103.863 118.286 103.597 122.48 103.34C125.276 103.169 128.067 102.916 130.866 102.806C131.355 102.787 132.793 102.811 132.326 102.954C130.586 103.485 128.762 103.69 126.968 103.997C122.364 104.787 117.749 105.514 113.135 106.246C91.3149 109.707 69.4623 112.985 47.5531 115.836C42.3124 116.519 37.0654 117.155 31.8127 117.738C29.1745 118.03 26.5347 118.353 23.8825 118.462C22.9457 118.501 25.7175 118.062 26.6484 117.95C46.5172 115.557 66.5436 114.195 86.4745 112.464C88.2266 112.312 128.685 108.776 133.065 108.452C137.127 108.151 141.193 107.82 145.266 107.781C152.898 107.709 148.765 108.983 143.857 110.31C134.365 112.875 118.517 115.881 109.739 117.616C102.609 119.025 95.467 120.372 88.3372 121.781C87.9281 121.861 66.591 126.031 62.6651 127.18C62.4747 127.235 62.5378 127.765 62.7362 127.771C65.2406 127.838 67.7457 127.593 70.2423 127.384C88.9044 125.825 107.418 123.158 125.838 119.804C167.434 112.23 125.143 119.588 155.055 113.951C156.589 113.662 158.908 111.915 159.687 113.268C160.423 114.543 156.953 114.366 155.549 114.807C151.611 116.046 147.647 117.199 143.67 118.307C131.811 121.608 117.349 125.356 105.412 128.177C100.338 129.376 95.2429 130.49 90.1371 131.548C87.1483 132.166 84.1434 132.709 81.1318 133.205C80.4586 133.316 78.4867 133.682 79.0913 133.366C79.972 132.905 81.0302 132.925 82.0078 132.747C84.5647 132.28 87.13 131.86 89.6932 131.429C99.2244 129.829 108.763 128.264 118.313 126.781C122.617 126.113 123.457 126.073 120.927 126.34C105.484 127.972 90.0181 129.349 74.5571 130.8C67.7653 131.438 60.9727 132.067 54.1839 132.736C49.6589 133.181 45.1355 133.645 40.6158 134.141C38.6699 134.355 36.7073 134.481 34.788 134.867C33.9998 135.025 36.3967 134.871 37.1994 134.827C40.5388 134.644 59.6485 133.295 59.9381 133.275C76.0244 132.146 77.9528 132.013 93.8816 130.838C98.2127 130.519 102.541 130.164 106.874 129.869C108.83 129.735 110.787 129.497 112.747 129.552C113.193 129.565 111.927 129.93 111.487 130C105.002 131.027 90.3738 132.62 85.2793 133.155C67.2947 135.041 49.2611 136.444 31.2833 138.39C29.0676 138.63 19.7138 139.521 28.1078 139.368C47.8443 139.007 67.6291 137.617 87.3167 136.321C112.801 134.644 108.725 134.74 131.834 133.001C135.183 132.749 154.197 131.32 133.275 133.981C120.804 135.567 110.443 136.556 97.7606 137.728C87.555 138.671 56.9274 141.368 67.1241 140.333C2291.46 -85.4636 -4553.47 609.579 92.682 137.809C111.137 135.935 129.632 133.464 148.142 132.172C151.38 131.947 141.804 133.587 138.612 134.181C121.68 137.336 104.68 140.528 88.0151 144.92C84.4775 145.852 80.9481 146.855 77.5231 148.14C75.6531 148.842 71.5738 150.021 74.9586 151.422C77.0282 152.279 79.5752 152.062 81.7654 152.208" stroke="#FDB229" stroke-width="3" stroke-linecap="round"/>
</g>
</g>
</g>
<g filter="url(#filter1_d_688_1085)">
<rect x="171.583" y="39" width="102.182" height="93.4055" rx="6.97491" transform="rotate(2.12978 171.583 39)" fill="white" shape-rendering="crispEdges"/>
<path d="M187.245 52.6717L187.326 50.4857M187.326 50.4857C187.537 50.4937 187.748 50.4751 187.954 50.4303M187.326 50.4857C187.116 50.4781 186.907 50.4438 186.705 50.3838M188.15 53.5556C187.527 53.6501 186.891 53.6265 186.277 53.4859M187.801 54.5362C187.384 54.5642 186.966 54.5486 186.552 54.4897M188.182 52.7066L188.185 52.6266C188.2 52.2173 188.487 51.8778 188.849 51.6856C189.456 51.3634 189.94 50.8499 190.226 50.2246C190.512 49.5993 190.584 48.8972 190.43 48.227C190.277 47.5568 189.906 46.9559 189.377 46.5176C188.847 46.0792 188.187 45.8277 187.5 45.8022C186.813 45.7766 186.137 45.9784 185.576 46.3762C185.015 46.774 184.601 47.3457 184.398 48.0026C184.195 48.6596 184.215 49.3651 184.453 50.0099C184.692 50.6547 185.137 51.2028 185.719 51.5692C186.065 51.7877 186.326 52.1476 186.311 52.5569L186.308 52.6369" stroke="#6F7286" stroke-width="0.75" stroke-linecap="round" stroke-linejoin="round"/>
<path d="M196.591 47.7735L196.396 53.0117L195.605 52.9823L195.8 47.7441L196.591 47.7735ZM199.723 53.1354L198.027 53.0724L198.222 47.8342L199.971 47.8992C200.484 47.9183 200.921 48.0396 201.282 48.263C201.642 48.4847 201.914 48.7945 202.095 49.1922C202.278 49.5884 202.36 50.0584 202.34 50.6023C202.319 51.148 202.202 51.6132 201.988 51.998C201.776 52.3828 201.478 52.6739 201.095 52.8714C200.712 53.0672 200.255 53.1552 199.723 53.1354ZM198.843 52.4112L199.705 52.4432C200.104 52.4581 200.438 52.3954 200.708 52.2551C200.978 52.1132 201.184 51.9015 201.326 51.6199C201.468 51.3366 201.547 50.9878 201.562 50.5734C201.578 50.1625 201.525 49.8113 201.404 49.52C201.285 49.2287 201.1 49.0041 200.848 48.8462C200.596 48.6883 200.279 48.6022 199.897 48.588L198.986 48.5541L198.843 52.4112ZM203.705 53.2835L203.9 48.0453L207.184 48.1674L207.159 48.8478L204.665 48.7551L204.606 50.3511L206.928 50.4374L206.903 51.1152L204.58 51.0289L204.521 52.6326L207.045 52.7264L207.02 53.4068L203.705 53.2835ZM208.968 53.4792L208.129 53.448L210.208 48.2799L211.122 48.3139L212.812 53.6222L211.973 53.591L210.651 49.2492L210.61 49.2477L208.968 53.4792ZM209.184 51.4332L211.906 51.5344L211.881 52.1994L209.16 52.0982L209.184 51.4332ZM213.341 49.0777L213.366 48.3973L217.42 48.5481L217.395 49.2285L215.76 49.1677L215.591 53.7255L214.803 53.6962L214.972 49.1384L213.341 49.0777ZM219.586 48.6287L219.391 53.8669L218.601 53.8375L218.796 48.5993L219.586 48.6287ZM225.67 51.4776C225.649 52.0369 225.529 52.514 225.31 52.9088C225.09 53.3019 224.798 53.6001 224.434 53.8034C224.071 54.005 223.664 54.0975 223.212 54.0807C222.758 54.0638 222.357 53.9413 222.009 53.7132C221.662 53.4835 221.394 53.1636 221.204 52.7536C221.015 52.3435 220.93 51.8597 220.951 51.3022C220.972 50.7429 221.092 50.2667 221.312 49.8736C221.531 49.4788 221.822 49.1805 222.185 48.9789C222.549 48.7756 222.958 48.6824 223.412 48.6992C223.864 48.716 224.263 48.8393 224.61 49.0691C224.958 49.2972 225.227 49.6162 225.417 50.0262C225.606 50.4346 225.691 50.9184 225.67 51.4776ZM224.887 51.4485C224.903 51.0223 224.848 50.6608 224.72 50.364C224.595 50.0657 224.415 49.837 224.182 49.6781C223.951 49.5175 223.685 49.4317 223.385 49.4205C223.083 49.4093 222.811 49.4751 222.568 49.6181C222.326 49.7593 222.13 49.974 221.981 50.2622C221.834 50.5487 221.752 50.9051 221.736 51.3314C221.72 51.7576 221.775 52.12 221.901 52.4183C222.028 52.715 222.207 52.9437 222.439 53.1043C222.67 53.2631 222.937 53.3482 223.239 53.3594C223.539 53.3706 223.81 53.3055 224.053 53.1643C224.297 53.0214 224.493 52.8067 224.64 52.5202C224.789 52.232 224.872 51.8748 224.887 51.4485ZM231.461 49.0703L231.266 54.3085L230.54 54.2815L228.02 50.3408L227.971 50.339L227.829 54.1806L227.038 54.1513L227.233 48.9131L227.965 48.9403L230.487 52.8862L230.535 52.888L230.678 49.0412L231.461 49.0703Z" fill="#6F7286"/>
<rect x="182.788" y="60.5913" width="72.3618" height="12" rx="6" transform="rotate(2.13 182.788 60.5913)" fill="#E8EDF2"/>
<rect x="182.193" y="76.5806" width="55.3407" height="12" rx="6" transform="rotate(2.13 182.193 76.5806)" fill="#E8EDF2"/>
<rect x="181.599" y="92.5693" width="85.9001" height="12" rx="6" transform="rotate(2.13 181.599 92.5693)" fill="#E8EDF2"/>
<rect x="181.004" y="108.558" width="56.2246" height="12" rx="6" transform="rotate(2.13 181.004 108.558)" fill="#E8EDF2"/>
</g>
<defs>
<filter id="filter0_d_688_1085" x="-56" y="-50.8369" width="307.887" height="293.463" filterUnits="userSpaceOnUse" color-interpolation-filters="sRGB">
<feFlood flood-opacity="0" result="BackgroundImageFix"/>
<feColorMatrix in="SourceAlpha" type="matrix" values="0 0 0 0 0 0 0 0 0 0 0 0 0 0 0 0 0 0 127 0" result="hardAlpha"/>
<feOffset dy="8"/>
<feGaussianBlur stdDeviation="28"/>
<feComposite in2="hardAlpha" operator="out"/>
<feColorMatrix type="matrix" values="0 0 0 0 0.0117647 0 0 0 0 0.0980392 0 0 0 0 0.282353 0 0 0 0.04 0"/>
<feBlend mode="normal" in2="BackgroundImageFix" result="effect1_dropShadow_688_1085"/>
<feBlend mode="normal" in="SourceGraphic" in2="effect1_dropShadow_688_1085" result="shape"/>
</filter>
<filter id="filter1_d_688_1085" x="112.111" y="-9" width="217.583" height="209.138" filterUnits="userSpaceOnUse" color-interpolation-filters="sRGB">
<feFlood flood-opacity="0" result="BackgroundImageFix"/>
<feColorMatrix in="SourceAlpha" type="matrix" values="0 0 0 0 0 0 0 0 0 0 0 0 0 0 0 0 0 0 127 0" result="hardAlpha"/>
<feOffset dy="8"/>
<feGaussianBlur stdDeviation="28"/>
<feComposite in2="hardAlpha" operator="out"/>
<feColorMatrix type="matrix" values="0 0 0 0 0.0117647 0 0 0 0 0.0980392 0 0 0 0 0.282353 0 0 0 0.04 0"/>
<feBlend mode="normal" in2="BackgroundImageFix" result="effect1_dropShadow_688_1085"/>
<feBlend mode="normal" in="SourceGraphic" in2="effect1_dropShadow_688_1085" result="shape"/>
</filter>
<clipPath id="clip0_688_1085">
<rect y="5.26758" width="188.605" height="173.518" rx="11.1599" transform="rotate(-2.46282 0 5.26758)" fill="white"/>
</clipPath>
<clipPath id="clip1_688_1085">
<path d="M0.180114 9.44867C0.0809095 7.13951 1.87243 5.18716 4.18158 5.08795L184.25 -2.64807C186.559 -2.74727 188.512 -0.955756 188.611 1.35339L189.34 18.3127L0.908709 26.4079L0.180114 9.44867Z" fill="white"/>
</clipPath>
</defs>
</svg>
