<svg width="314" height="204" viewBox="0 0 314 204" fill="none" xmlns="http://www.w3.org/2000/svg">
<rect x="68" y="79" width="49" height="49" rx="24.5" fill="white"/>
<rect x="68" y="79" width="49" height="49" rx="24.5" stroke="#EBEFF6" stroke-width="0.644737"/>
<path d="M92.5001 117.722C100.355 117.722 106.722 111.354 106.722 103.5C106.722 95.6448 100.355 89.2773 92.5001 89.2773C84.6453 89.2773 78.2778 95.6448 78.2778 103.5C78.2778 111.354 84.6453 117.722 92.5001 117.722Z" fill="#7D2AE7"/>
<path d="M92.5001 117.722C100.355 117.722 106.722 111.354 106.722 103.5C106.722 95.6448 100.355 89.2773 92.5001 89.2773C84.6453 89.2773 78.2778 95.6448 78.2778 103.5C78.2778 111.354 84.6453 117.722 92.5001 117.722Z" fill="url(#paint0_radial_688_1007)"/>
<path d="M92.5001 117.722C100.355 117.722 106.722 111.354 106.722 103.5C106.722 95.6448 100.355 89.2773 92.5001 89.2773C84.6453 89.2773 78.2778 95.6448 78.2778 103.5C78.2778 111.354 84.6453 117.722 92.5001 117.722Z" fill="url(#paint1_radial_688_1007)"/>
<path d="M92.5001 117.722C100.355 117.722 106.722 111.354 106.722 103.5C106.722 95.6448 100.355 89.2773 92.5001 89.2773C84.6453 89.2773 78.2778 95.6448 78.2778 103.5C78.2778 111.354 84.6453 117.722 92.5001 117.722Z" fill="url(#paint2_radial_688_1007)"/>
<path d="M92.5001 117.722C100.355 117.722 106.722 111.354 106.722 103.5C106.722 95.6448 100.355 89.2773 92.5001 89.2773C84.6453 89.2773 78.2778 95.6448 78.2778 103.5C78.2778 111.354 84.6453 117.722 92.5001 117.722Z" fill="url(#paint3_radial_688_1007)"/>
<path d="M98.6398 106.417C98.5225 106.417 98.4192 106.516 98.3117 106.732C97.0979 109.194 95.0014 110.935 92.5753 110.935C89.7701 110.935 88.0329 108.403 88.0329 104.905C88.0329 98.9787 91.3346 95.5524 94.2347 95.5524C95.5899 95.5524 96.4174 96.4041 96.4174 97.7593C96.4174 99.3677 95.5036 100.219 95.5036 100.787C95.5036 101.041 95.662 101.195 95.9761 101.195C97.238 101.195 98.719 99.7454 98.719 97.697C98.719 95.7109 96.9904 94.251 94.0904 94.251C89.2976 94.251 85.0381 98.6944 85.0381 104.842C85.0381 109.601 87.7556 112.746 91.9486 112.746C96.399 112.746 98.9723 108.318 98.9723 106.881C98.9723 106.563 98.8096 106.417 98.6398 106.417Z" fill="white"/>
<rect x="197" y="80" width="48" height="48" rx="24" fill="white"/>
<rect x="197" y="80" width="48" height="48" rx="24" stroke="#EBEFF6" stroke-width="0.644737"/>
<path d="M224.826 98.9259H225.693L228.166 96.4533L228.287 95.4035C226.871 94.1533 225.159 93.2848 223.314 92.8801C221.468 92.4753 219.55 92.5478 217.741 93.0905C215.931 93.6332 214.29 94.6283 212.971 95.9818C211.653 97.3353 210.702 99.0025 210.207 100.826C210.483 100.713 210.788 100.695 211.075 100.774L216.02 99.9583C216.02 99.9583 216.272 99.5419 216.402 99.5679C217.461 98.4042 218.926 97.6895 220.495 97.5702C222.064 97.4508 223.62 97.9358 224.843 98.9259H224.826Z" fill="#EA4335"/>
<path d="M231.69 100.826C231.121 98.7329 229.954 96.8514 228.332 95.4121L224.862 98.8824C225.585 99.4734 226.165 100.221 226.557 101.069C226.949 101.916 227.144 102.842 227.126 103.776V104.392C227.532 104.392 227.933 104.472 228.308 104.627C228.683 104.782 229.023 105.009 229.31 105.296C229.597 105.583 229.824 105.924 229.98 106.298C230.135 106.673 230.215 107.075 230.215 107.48C230.215 107.886 230.135 108.287 229.98 108.662C229.824 109.037 229.597 109.377 229.31 109.664C229.023 109.951 228.683 110.179 228.308 110.334C227.933 110.489 227.532 110.569 227.126 110.569H220.949L220.333 111.194V114.898L220.949 115.514H227.126C228.851 115.528 230.535 114.985 231.927 113.968C233.32 112.95 234.349 111.511 234.861 109.864C235.372 108.217 235.34 106.448 234.769 104.821C234.198 103.193 233.118 101.792 231.69 100.826Z" fill="#4285F4"/>
<path d="M214.762 115.479H220.939V110.534H214.762C214.322 110.534 213.887 110.439 213.487 110.256L212.619 110.525L210.129 112.998L209.913 113.865C211.309 114.92 213.013 115.486 214.762 115.479Z" fill="#34A853"/>
<path d="M214.763 99.4374C213.09 99.4474 211.461 99.9799 210.105 100.961C208.748 101.941 207.732 103.321 207.198 104.907C206.664 106.494 206.638 108.207 207.125 109.808C207.612 111.41 208.587 112.819 209.914 113.839L213.497 110.256C213.041 110.051 212.643 109.737 212.335 109.344C212.027 108.95 211.82 108.488 211.73 107.996C211.64 107.505 211.671 106.999 211.82 106.522C211.969 106.045 212.231 105.611 212.584 105.258C212.938 104.904 213.371 104.642 213.848 104.493C214.325 104.344 214.831 104.313 215.323 104.403C215.814 104.493 216.277 104.701 216.67 105.008C217.064 105.316 217.377 105.715 217.583 106.17L221.166 102.587C220.414 101.604 219.445 100.808 218.334 100.261C217.223 99.715 216.001 99.433 214.763 99.4374Z" fill="#FBBC05"/>
<rect x="68" y="150" width="49" height="49" rx="24.5" fill="white"/>
<rect x="68" y="150" width="49" height="49" rx="24.5" stroke="#EBEFF6" stroke-width="0.644737"/>
<rect x="78.2778" y="160.278" width="28.4444" height="28.4444" rx="4" fill="#0061FE"/>
<path d="M92.5122 169.44L87.7654 172.469L92.5122 175.499L87.7654 178.529L83.0186 175.474L87.7654 172.444L83.0186 169.44L87.7654 166.41L92.5122 169.44ZM87.7401 179.489L92.4869 176.459L97.2337 179.489L92.4869 182.518L87.7401 179.489ZM92.5122 175.474L97.259 172.444L92.5122 169.44L97.2337 166.41L101.981 169.44L97.2337 172.469L101.981 175.499L97.2337 178.529L92.5122 175.474Z" fill="#F6F3F0"/>
<rect x="197" y="150" width="49" height="49" rx="24.5" fill="white"/>
<rect x="197" y="150" width="49" height="49" rx="24.5" stroke="#EBEFF6" stroke-width="0.644737"/>
<path d="M209.704 161.504L225.478 160.342C227.415 160.176 227.914 160.287 229.131 161.172L234.166 164.711C234.997 165.32 235.274 165.485 235.274 166.149V185.56C235.274 186.776 234.831 187.496 233.282 187.606L214.963 188.712C213.8 188.768 213.247 188.602 212.638 187.827L208.93 183.016C208.265 182.13 207.989 181.468 207.989 180.693V163.439C207.989 162.444 208.432 161.614 209.704 161.504Z" fill="white"/>
<path fill-rule="evenodd" clip-rule="evenodd" d="M225.478 160.342L209.704 161.504C208.432 161.614 207.989 162.444 207.989 163.439V180.693C207.989 181.468 208.265 182.13 208.93 183.016L212.638 187.827C213.247 188.602 213.8 188.768 214.963 188.712L233.282 187.606C234.831 187.496 235.274 186.776 235.274 185.56V166.149C235.274 165.52 235.025 165.338 234.292 164.803C234.252 164.773 234.21 164.743 234.166 164.711L229.131 161.172C227.914 160.287 227.415 160.176 225.478 160.342ZM215.379 165.83C213.883 165.931 213.543 165.954 212.694 165.264L210.534 163.55C210.314 163.328 210.424 163.052 210.977 162.997L226.142 161.891C227.415 161.78 228.079 162.223 228.577 162.61L231.178 164.49C231.289 164.545 231.565 164.877 231.233 164.877L215.572 165.817C215.506 165.822 215.442 165.826 215.38 165.83L215.379 165.83L215.379 165.83ZM213.634 185.394V168.914C213.634 168.196 213.856 167.863 214.519 167.808L232.506 166.757C233.116 166.702 233.392 167.089 233.392 167.808V184.176C233.392 184.896 233.281 185.505 232.285 185.56L215.073 186.556C214.077 186.61 213.634 186.279 213.634 185.394ZM230.626 169.798C230.736 170.296 230.626 170.794 230.127 170.85L229.297 171.015V183.181C228.577 183.569 227.913 183.79 227.36 183.79C226.474 183.79 226.252 183.513 225.589 182.684L220.164 174.168V182.407L221.881 182.795C221.881 182.795 221.881 183.79 220.496 183.79L216.678 184.011C216.567 183.79 216.678 183.237 217.065 183.126L218.062 182.85V171.956L216.678 171.845C216.567 171.347 216.844 170.629 217.619 170.573L221.715 170.297L227.36 178.924V171.292L225.921 171.127C225.81 170.518 226.252 170.075 226.806 170.021L230.626 169.798Z" fill="#000008"/>
<g filter="url(#filter0_d_688_1007)">
<g clip-path="url(#clip0_688_1007)">
<rect x="129" y="76" width="56" height="56" rx="28" fill="white"/>
<rect x="129" y="76" width="56" height="56" rx="28" fill="#0080FF"/>
<path d="M171.857 79.6522V128.348M132.238 118.609H181.762M142.143 79.6522L142.143 128.348M132.238 89.3913H181.762M142.143 85.7391L138.429 89.3913M142.143 88.1739L140.905 89.3913M142.143 83.3043L135.952 89.3913M142.143 80.8696L133.476 89.3913M142.143 78.4348L131 89.3913M142.143 76L131 86.9565M171.857 85.7391L175.571 89.3913M171.857 88.1739L173.095 89.3913M171.857 83.3043L178.048 89.3913M171.857 80.8696L180.524 89.3913M171.857 78.4348L183 89.3913M171.857 76L183 86.9565M171.857 122.261L175.571 118.609M171.857 119.826L173.095 118.609M171.857 124.696L178.048 118.609M171.857 127.13L180.524 118.609M171.857 129.565L183 118.609M171.857 132L183 121.043M142.143 122.261L138.429 118.609M142.143 119.826L140.905 118.609M142.143 124.696L135.952 118.609M142.143 127.13L133.476 118.609M142.143 129.565L131 118.609M142.143 132L131 121.043" stroke="url(#paint4_radial_688_1007)" stroke-opacity="0.8" stroke-width="0.5"/>
<path d="M156.78 104.135C154.584 105.291 151.743 106.007 149.277 105.477C146.08 104.786 144.957 101.532 146.288 98.7044C147.992 95.0554 152.467 94.274 156.089 94.2607H167.462V96.8501C162.723 96.572 156.773 99.3048 156.773 104.135C156.773 108.965 150.833 111.691 146.094 111.413V114.002H157.467C161.089 113.976 165.564 113.214 167.277 109.559C168.601 106.731 167.478 103.468 164.288 102.784C161.82 102.254 158.979 102.971 156.785 104.126V104.133L156.78 104.135Z" fill="white"/>
</g>
<rect x="125.348" y="72.3478" width="63.3043" height="63.3043" rx="31.6522" stroke="#E6EEFF" stroke-width="7.30435"/>
</g>
<rect x="258" y="14" width="44" height="44" rx="22" fill="white"/>
<rect x="258" y="14" width="44" height="44" rx="22" stroke="#EBEFF6" stroke-width="0.578947"/>
<path d="M286.78 41.3893C286.78 42.0106 286.276 42.5141 285.656 42.5141H274.336C273.715 42.5141 273.212 42.0106 273.212 41.3893V30.0694C273.212 29.4482 273.715 28.9446 274.336 28.9446H285.656C286.276 28.9446 286.78 29.4482 286.78 30.0694V41.3893ZM287.094 25.0664H272.896C270.928 25.0664 269.333 26.6615 269.333 28.6298V42.8268C269.333 44.7947 270.928 46.3907 272.896 46.3907H287.094C289.062 46.3907 290.658 44.7947 290.658 42.8268V28.6298C290.658 26.6615 289.062 25.0664 287.094 25.0664Z" fill="#1A1A1A"/>
<path d="M277.733 38.6224C277.375 38.6224 277.088 38.3321 277.088 37.974V33.4554C277.088 33.0968 277.375 32.8064 277.733 32.8064H282.259C282.615 32.8064 282.904 33.0968 282.904 33.4554V37.974C282.904 38.3321 282.615 38.6224 282.259 38.6224H277.733Z" fill="#1A1A1A"/>
<rect x="12" y="14" width="44" height="44" rx="22" fill="white"/>
<rect x="12" y="14" width="44" height="44" rx="22" stroke="#EBEFF6" stroke-width="0.578947"/>
<g filter="url(#filter1_d_688_1007)">
<path fill-rule="evenodd" clip-rule="evenodd" d="M24.0005 42.4393L27.6919 39.6118C29.6522 42.1712 31.7339 43.3505 34.0536 43.3505C36.3606 43.3505 38.3851 42.1846 40.2575 39.6456L43.9998 42.4055C41.3 46.0662 37.9413 48.0003 34.0536 48.0003C30.1789 48.0003 26.789 46.0798 24.0005 42.4393Z" fill="url(#paint5_linear_688_1007)"/>
<path fill-rule="evenodd" clip-rule="evenodd" d="M34.041 30.1492L27.4708 35.8107L24.4355 32.2881L34.0541 24L43.5977 32.2946L40.5476 35.8042L34.041 30.1492Z" fill="url(#paint6_linear_688_1007)"/>
</g>
<rect x="258" y="82" width="44" height="44" rx="22" fill="white"/>
<rect x="258" y="82" width="44" height="44" rx="22" stroke="#EBEFF6" stroke-width="0.578947"/>
<path fill-rule="evenodd" clip-rule="evenodd" d="M287.674 101.807L290.163 107.394C290.667 108.524 290.158 109.849 289.027 110.352C287.895 110.856 286.57 110.347 286.066 109.217L284.054 104.7L283.168 106.788V101.807H287.674Z" fill="#2AA8FF"/>
<path fill-rule="evenodd" clip-rule="evenodd" d="M287.944 102.412L288.459 103.568C288.148 103.46 287.813 103.401 287.466 103.401C286.029 103.401 284.826 104.403 284.52 105.744L284.054 104.7L283.561 105.861V102.412H287.944Z" fill="#393939" fill-opacity="0.2"/>
<path fill-rule="evenodd" clip-rule="evenodd" d="M280.454 101.708V105.665H276.307L275.877 104.7L275.468 105.665H270.881V104.994L273.756 98.2253C274.119 97.3692 274.953 96.8563 275.828 96.8594C276.69 96.8564 277.513 97.3524 277.886 98.1894L279.965 102.858L280.454 101.708Z" fill="#017ACE"/>
<path fill-rule="evenodd" clip-rule="evenodd" d="M279.962 102.851L279.965 102.858L281.933 98.2253C282.296 97.3692 283.13 96.8563 284.005 96.8594C284.867 96.8564 285.69 97.3524 286.063 98.1894L288.457 103.563C287.974 103.147 287.345 102.895 286.657 102.895C285.462 102.895 284.444 103.655 284.063 104.719L284.054 104.7L282.122 109.251C281.638 110.39 280.322 110.922 279.182 110.438C279.072 110.392 278.966 110.336 278.865 110.273C278.447 110.046 278.098 109.685 277.889 109.217L275.885 104.718C276.187 104.804 276.506 104.85 276.835 104.85C278.221 104.85 279.416 104.031 279.962 102.851Z" fill="#AEDEFF"/>
<path fill-rule="evenodd" clip-rule="evenodd" d="M275.865 104.729L274.422 108.128C274.07 108.289 273.678 108.379 273.264 108.379C271.814 108.379 270.625 107.272 270.516 105.853L271.507 103.521C271.984 103.126 272.596 102.889 273.264 102.889C274.466 102.889 275.488 103.657 275.865 104.729Z" fill="#000008"/>
<path fill-rule="evenodd" clip-rule="evenodd" d="M275.441 105.727L273.945 109.251C273.461 110.39 272.145 110.922 271.005 110.438C269.865 109.955 269.333 108.639 269.817 107.5L271.479 103.587C271.831 103.431 272.22 103.344 272.629 103.344C274.042 103.344 275.215 104.375 275.441 105.727Z" fill="#393939"/>
<rect x="12" y="82" width="44" height="44" rx="22" fill="white"/>
<rect x="12" y="82" width="44" height="44" rx="22" stroke="#EBEFF6" stroke-width="0.578947"/>
<path d="M21.5557 104C21.5557 97.1272 27.1272 91.5557 34.0001 91.5557C40.873 91.5557 46.4446 97.1272 46.4446 104C46.4446 110.873 40.873 116.445 34.0001 116.445C27.1272 116.445 21.5557 110.873 21.5557 104Z" fill="url(#paint7_radial_688_1007)"/>
<path d="M34.7349 102.092C34.7165 102.454 34.6954 102.867 34.4676 103.153C34.4495 103.174 34.4303 103.194 34.4101 103.213C34.2983 103.332 34.1558 103.417 33.9983 103.46L33.9679 103.467C33.7974 103.506 33.619 103.495 33.4553 103.433C33.4302 103.425 33.4055 103.415 33.3814 103.405C33.0521 103.248 32.8522 102.886 32.6777 102.571C32.6587 102.536 32.64 102.503 32.6215 102.47L32.3577 102.001C31.813 101.032 31.2683 100.064 30.7322 99.0909C30.6709 98.9793 30.608 98.8691 30.5452 98.7589C30.3669 98.4461 30.189 98.1343 30.0491 97.7979C30.0359 97.7662 30.0224 97.7343 30.0088 97.702C29.8611 97.3517 29.6989 96.9672 29.7763 96.5906C29.9263 95.8631 30.8146 95.4835 31.4465 95.2766C31.6406 95.2145 31.839 95.162 32.0395 95.1139C32.2399 95.0658 32.4421 95.0282 32.6438 95.0002C33.3024 94.9091 34.2676 94.8608 34.7207 95.448C34.9555 95.7527 34.9782 96.1686 34.9989 96.548C35.0008 96.5832 35.0027 96.6182 35.0047 96.6527C35.0265 97.0168 35.0034 97.3753 34.9803 97.735C34.9722 97.8611 34.964 97.9876 34.9578 98.1143C34.9076 99.1497 34.8466 100.185 34.7856 101.22C34.7707 101.473 34.7557 101.726 34.741 101.979C34.7388 102.016 34.7369 102.054 34.7349 102.092Z" fill="white"/>
<path d="M40.6925 101.689C40.4726 101.229 40.1769 100.808 39.8179 100.445C39.7715 100.399 39.7218 100.357 39.6691 100.318C39.6205 100.281 39.57 100.247 39.5178 100.216C39.4642 100.187 39.409 100.16 39.3525 100.137C39.2409 100.093 39.1213 100.074 39.0015 100.079C38.887 100.086 38.7753 100.117 38.674 100.171C38.5206 100.247 38.3546 100.37 38.1339 100.575C38.1136 100.595 38.0897 100.617 38.0659 100.639C38.054 100.65 38.0421 100.661 38.0306 100.671C37.8845 100.809 37.7252 100.972 37.5434 101.158L37.5432 101.158C37.4985 101.204 37.4524 101.251 37.4048 101.299C37.0324 101.676 36.6656 102.054 36.3011 102.436L35.6489 103.112C35.5294 103.236 35.4207 103.369 35.3238 103.511C35.2413 103.631 35.1829 103.766 35.152 103.908C35.1341 104.017 35.1368 104.129 35.16 104.237L35.1633 104.251C35.2149 104.475 35.3515 104.671 35.5443 104.796C35.737 104.921 35.9708 104.967 36.1966 104.923C36.2323 104.918 36.2601 104.912 36.2769 104.907L39.808 104.092C40.0652 104.033 40.3239 103.974 40.5547 103.84C40.7198 103.744 40.8769 103.649 40.9846 103.458C41.0421 103.353 41.077 103.237 41.0868 103.117C41.1399 102.644 40.892 102.106 40.6925 101.689Z" fill="white"/>
<path d="M31.7168 105.959L32.5224 105.773C32.5395 105.769 32.567 105.763 32.6004 105.752C32.8225 105.693 33.0126 105.549 33.131 105.352C33.2493 105.155 33.2865 104.92 33.2348 104.696L33.2315 104.681C33.205 104.574 33.1586 104.473 33.0947 104.382C33.0045 104.268 32.8929 104.173 32.766 104.101C32.6167 104.016 32.4605 103.944 32.299 103.885L31.4164 103.563C30.9212 103.379 30.4259 103.2 29.926 103.025C29.8619 103.002 29.7997 102.98 29.7393 102.959C29.4947 102.871 29.2798 102.794 29.0885 102.735C29.0734 102.73 29.0578 102.726 29.0422 102.721C29.0112 102.712 28.9802 102.703 28.9533 102.693C28.6648 102.605 28.4621 102.569 28.2906 102.567C28.176 102.563 28.0619 102.584 27.9562 102.628C27.846 102.676 27.7471 102.746 27.6658 102.834C27.6254 102.88 27.5874 102.928 27.552 102.978C27.5188 103.029 27.4884 103.081 27.4608 103.135C27.4304 103.193 27.4043 103.254 27.3827 103.315C27.2192 103.799 27.1379 104.307 27.1423 104.817C27.1455 105.278 27.1582 105.871 27.4123 106.272C27.4736 106.375 27.5557 106.464 27.6535 106.534C27.8345 106.658 28.0173 106.675 28.2074 106.689C28.4736 106.708 28.7319 106.648 28.989 106.588L31.7145 105.959L31.7168 105.959Z" fill="white"/>
<path d="M34.1653 106.6C34.0668 106.462 33.927 106.358 33.7661 106.304C33.6051 106.25 33.4311 106.248 33.269 106.299C33.2309 106.312 33.1938 106.327 33.158 106.345C33.1026 106.373 33.0496 106.406 32.9999 106.443C32.8549 106.551 32.7329 106.69 32.6219 106.83C32.6119 106.843 32.6023 106.857 32.5925 106.871C32.5746 106.897 32.5561 106.924 32.5344 106.944L31.9753 107.713C31.6583 108.143 31.3457 108.575 31.0358 109.014C30.995 109.071 30.9554 109.126 30.9169 109.18C30.7646 109.393 30.6308 109.579 30.5205 109.748C30.5111 109.762 30.5017 109.777 30.4922 109.792C30.4752 109.819 30.4582 109.845 30.4423 109.868C30.2767 110.124 30.1829 110.311 30.1348 110.478C30.0987 110.588 30.0873 110.705 30.1015 110.821C30.1169 110.941 30.1575 111.057 30.2207 111.161C30.2543 111.213 30.2904 111.263 30.3291 111.311C30.3693 111.358 30.4119 111.402 30.4569 111.444C30.5048 111.49 30.5562 111.532 30.6104 111.57C30.9968 111.838 31.4198 112.031 31.8647 112.18C32.2349 112.303 32.6197 112.376 33.0091 112.399C33.0753 112.402 33.1417 112.401 33.2078 112.394C33.269 112.389 33.3298 112.38 33.3902 112.369C33.4504 112.355 33.5099 112.337 33.5683 112.317C33.682 112.275 33.7855 112.209 33.8722 112.124C33.9542 112.042 34.0173 111.943 34.0571 111.834C34.1217 111.673 34.1641 111.468 34.1919 111.164C34.1935 111.136 34.1967 111.103 34.2 111.071C34.2016 111.055 34.2033 111.038 34.2047 111.022C34.222 110.824 34.2318 110.598 34.243 110.341C34.2461 110.272 34.2492 110.2 34.2526 110.126C34.2797 109.591 34.3008 109.058 34.3175 108.524L34.3529 107.574C34.361 107.356 34.3541 107.113 34.2932 106.895C34.2665 106.791 34.2233 106.691 34.1653 106.6Z" fill="white"/>
<path d="M39.9408 107.672C40.202 107.83 40.3675 107.957 40.4844 108.085C40.5654 108.169 40.6271 108.269 40.6651 108.379C40.7038 108.494 40.7179 108.616 40.7065 108.736C40.6993 108.798 40.6889 108.859 40.6754 108.919C40.6596 108.978 40.6409 109.037 40.6192 109.094C40.5961 109.156 40.5683 109.217 40.5364 109.275C40.3065 109.686 40.0109 110.044 39.6764 110.373C39.3975 110.646 39.0839 110.881 38.7436 111.071C38.6856 111.103 38.6254 111.131 38.5634 111.155C38.5059 111.177 38.4474 111.196 38.388 111.212C38.3276 111.225 38.2666 111.236 38.2052 111.243C38.0843 111.255 37.9623 111.242 37.847 111.204C37.7373 111.166 37.6372 111.104 37.5537 111.024C37.4247 110.906 37.2975 110.742 37.1392 110.481C37.1246 110.456 37.1069 110.427 37.0892 110.398C37.0812 110.385 37.0731 110.372 37.0654 110.359C36.962 110.187 36.853 109.986 36.7288 109.757C36.6967 109.699 36.6637 109.638 36.6294 109.575C36.3707 109.106 36.1183 108.636 35.8688 108.163L35.4206 107.325C35.3174 107.132 35.2177 106.912 35.1765 106.689C35.1561 106.584 35.1521 106.476 35.1648 106.369C35.1925 106.202 35.2724 106.048 35.3929 105.929C35.5135 105.809 35.6687 105.731 35.8362 105.705C35.876 105.7 35.9161 105.697 35.9562 105.698C36.0184 105.699 36.0804 105.705 36.1415 105.717C36.3188 105.75 36.4896 105.822 36.6507 105.899C36.6651 105.906 36.6798 105.914 36.6947 105.922C36.7225 105.938 36.7511 105.954 36.7794 105.963L37.6181 106.407C38.0928 106.656 38.5631 106.907 39.033 107.165C39.1002 107.201 39.1653 107.236 39.2282 107.27C39.4518 107.391 39.6485 107.497 39.8182 107.599C39.8323 107.607 39.8468 107.616 39.8613 107.625C39.8888 107.641 39.9162 107.658 39.9408 107.672Z" fill="white"/>
<rect x="258" y="153" width="44" height="44" rx="22" fill="white"/>
<rect x="258" y="153" width="44" height="44" rx="22" stroke="#EBEFF6" stroke-width="0.578947"/>
<path d="M282.667 164.333H277.333C272.915 164.333 269.333 167.915 269.333 172.333V177.666C269.333 182.085 272.915 185.666 277.334 185.666H282.667C287.085 185.666 290.667 182.085 290.667 177.666V172.333C290.667 167.915 287.085 164.333 282.667 164.333Z" fill="#3333FF"/>
<path d="M286.588 177.598L283.924 173.572L286.034 172.522C286.29 172.394 286.46 172.137 286.46 171.837C286.46 171.537 286.29 171.28 286.034 171.152L280.684 168.454C280.45 168.325 280.173 168.304 279.917 168.368C279.853 168.39 279.789 168.411 279.725 168.432L279.683 168.454L274.29 171.152L274.013 171.28C273.822 171.388 273.672 171.559 273.608 171.773C273.545 171.987 273.587 172.223 273.715 172.394L276.379 176.42L274.269 177.469C274.013 177.598 273.843 177.855 273.843 178.154C273.843 178.454 274.013 178.711 274.269 178.84L279.619 181.538C279.768 181.623 279.938 181.666 280.109 181.666C280.194 181.666 280.301 181.645 280.386 181.623C280.45 181.602 280.514 181.581 280.578 181.559L286.247 178.711C286.439 178.604 286.588 178.433 286.652 178.219C286.737 178.004 286.716 177.79 286.588 177.598ZM280.301 180.788L277.615 176.741L280.151 175.456L285.522 178.154L282.943 179.461L280.301 180.788ZM276.763 170.831L280.024 169.203L282.709 173.251L280.173 174.535L274.802 171.837L276.763 170.831ZM285.245 177.084L281.089 174.985L283.178 173.936L285.245 177.084ZM283.455 172.886L281.366 169.739L285.522 171.837L283.455 172.886ZM275.058 172.908L279.214 175.007L277.125 176.056L275.058 172.908ZM276.869 177.127L278.958 180.274L274.802 178.176L276.869 177.127Z" fill="white"/>
<rect x="12" y="153" width="44" height="44" rx="22" fill="white"/>
<rect x="12" y="153" width="44" height="44" rx="22" stroke="#EBEFF6" stroke-width="0.578947"/>
<path d="M25.9726 181.286C25.0133 181.286 24.1318 180.794 23.6651 179.964C23.1984 179.16 23.2243 178.175 23.7429 177.397L28.5134 170.112C29.006 169.308 29.9135 168.841 30.8727 168.867C31.832 168.893 32.7136 169.412 33.1543 170.241C33.5951 171.071 33.5432 172.056 33.0247 172.808L28.2282 180.094C27.7356 180.82 26.88 181.286 25.9726 181.286Z" fill="#FB275D"/>
<path d="M34.0869 181.287C33.1276 181.287 32.2461 180.794 31.7794 179.99C31.3127 179.186 31.3386 178.201 31.8572 177.423L36.6277 170.138C37.1203 169.334 38.0018 168.842 38.987 168.867C39.9723 168.893 40.8278 169.412 41.2686 170.242C41.7094 171.071 41.6575 172.056 41.0871 172.834L36.3166 180.094C35.8499 180.82 34.9943 181.287 34.0869 181.287Z" fill="#FFCC00"/>
<path d="M42.0223 181.286C43.4742 181.286 44.6668 180.094 44.6668 178.642C44.6668 177.19 43.4742 175.997 42.0223 175.997C40.5704 175.997 39.3778 177.19 39.3778 178.642C39.3778 180.12 40.5445 181.286 42.0223 181.286Z" fill="#00CA72"/>
<rect x="129" y="8" width="56" height="56" rx="28" fill="white"/>
<rect x="129" y="8" width="56" height="56" rx="28" stroke="#EBEFF6" stroke-width="0.736842"/>
<path d="M156.882 35.9995C156.882 33.3813 159.005 31.2588 161.623 31.2588C164.241 31.2588 166.364 33.3813 166.364 35.9995C166.364 38.6178 164.241 40.7403 161.623 40.7403C159.005 40.7403 156.882 38.6178 156.882 35.9995Z" fill="#1ABCFE"/>
<path d="M147.4 45.481C147.4 42.8628 149.522 40.7402 152.141 40.7402H156.881V45.481C156.881 48.0992 154.759 50.2217 152.141 50.2217C149.522 50.2217 147.4 48.0992 147.4 45.481Z" fill="#0ACF83"/>
<path d="M156.882 21.7773V31.2588H161.623C164.241 31.2588 166.364 29.1363 166.364 26.5181C166.364 23.8998 164.241 21.7773 161.623 21.7773H156.882Z" fill="#FF7262"/>
<path d="M147.4 26.5181C147.4 29.1363 149.522 31.2588 152.141 31.2588H156.881V21.7773H152.141C149.522 21.7773 147.4 23.8998 147.4 26.5181Z" fill="#F24E1E"/>
<path d="M147.4 35.9995C147.4 38.6178 149.522 40.7403 152.141 40.7403H156.881V31.2588H152.141C149.522 31.2588 147.4 33.3813 147.4 35.9995Z" fill="#A259FF"/>
<rect x="129" y="144" width="56" height="56" rx="28" fill="white"/>
<rect x="129" y="144" width="56" height="56" rx="28" stroke="#EBEFF6" stroke-width="0.736842"/>
<path d="M157 158C149.278 158 143 164.278 143 172C143 179.722 149.278 186 157 186C164.722 186 171 179.722 171 172C171 164.278 164.722 158 157 158Z" fill="#FF5A5F"/>
<path d="M157 175.687C156.082 174.532 155.542 173.52 155.362 172.654C155.182 171.951 155.254 171.391 155.56 170.976C155.884 170.489 156.37 170.255 157 170.255C157.63 170.255 158.116 170.489 158.44 170.976C158.746 171.391 158.818 171.951 158.638 172.654C158.44 173.538 157.9 174.548 157 175.687ZM162.025 178.357C160.495 179.024 158.981 177.96 157.686 176.517C159.829 173.827 160.225 171.734 159.305 170.379C158.765 169.604 157.991 169.225 157 169.225C155.002 169.225 153.903 170.921 154.334 172.889C154.586 173.953 155.252 175.164 156.314 176.517C155.518 177.401 154.473 178.405 153.219 178.519C151.401 178.79 149.977 177.022 150.625 175.198L155.234 165.633C155.628 164.914 156.113 164.298 156.998 164.298C157.646 164.298 158.15 164.677 158.366 164.984L163.371 175.198C163.861 176.432 163.239 177.831 162.025 178.357ZM164.346 174.837L160.061 165.904C159.251 164.244 158.675 163.25 157 163.25C155.344 163.25 154.64 164.405 153.921 165.904L149.653 174.837C148.736 177.364 150.625 179.583 152.913 179.583C153.057 179.583 153.2 179.565 153.345 179.565C154.532 179.421 155.758 178.663 157 177.308C158.242 178.661 159.467 179.421 160.655 179.565C160.8 179.565 160.943 179.583 161.087 179.583C163.374 179.585 165.264 177.364 164.346 174.837Z" fill="white"/>
<rect x="68" y="11" width="49" height="49" rx="24.5" fill="white"/>
<rect x="68" y="11" width="49" height="49" rx="24.5" stroke="#EBEFF6" stroke-width="0.644737"/>
<path d="M104.589 21.2773H80.4112C79.233 21.2773 78.2778 22.2325 78.2778 23.4107V47.5885C78.2778 48.7667 79.233 49.7218 80.4112 49.7218H104.589C105.767 49.7218 106.722 48.7667 106.722 47.5885V23.4107C106.722 22.2325 105.767 21.2773 104.589 21.2773Z" fill="#FFD02F"/>
<path fill-rule="evenodd" clip-rule="evenodd" d="M97.6163 24.834H94.4937L97.0967 29.4052L91.3729 24.834H88.2503L91.1131 30.4219L85.1294 24.834H82.0068L85.1294 31.9445L82.0068 46.1673H85.1294L91.1131 30.9295L88.2503 46.1673H91.3729L97.0967 29.9127L94.4937 46.1673H97.6163L103.34 28.3901L97.6163 24.834Z" fill="#050038"/>
<rect x="197" y="11" width="49" height="49" rx="24.5" fill="white"/>
<rect x="197" y="11" width="49" height="49" rx="24.5" stroke="#EBEFF6" stroke-width="0.644737"/>
<path d="M227.722 21.2773H215.278C210.86 21.2773 207.278 24.8591 207.278 29.2773V41.7218C207.278 46.1401 210.86 49.7218 215.278 49.7218H227.722C232.141 49.7218 235.722 46.1401 235.722 41.7218V29.2773C235.722 24.8591 232.141 21.2773 227.722 21.2773Z" fill="#0052FF"/>
<path d="M221.542 40.172C218.977 40.172 216.905 38.0939 216.905 35.5349C216.905 32.9759 218.983 30.8977 221.542 30.8977C223.838 30.8977 225.744 32.5694 226.111 34.762H230.782C230.387 29.9989 226.402 26.2549 221.536 26.2549C216.413 26.2549 212.256 30.4111 212.256 35.5349C212.256 40.6586 216.413 44.8149 221.536 44.8149C226.402 44.8149 230.387 41.0708 230.782 36.3077H226.105C225.738 38.5004 223.838 40.172 221.542 40.172Z" fill="white"/>
<rect width="105" height="200" fill="url(#paint8_linear_688_1007)"/>
<rect width="105" height="200" transform="matrix(-1 0 0 1 314 0)" fill="url(#paint9_linear_688_1007)"/>
<defs>
<filter id="filter0_d_688_1007" x="65.6958" y="20.6958" width="182.608" height="182.608" filterUnits="userSpaceOnUse" color-interpolation-filters="sRGB">
<feFlood flood-opacity="0" result="BackgroundImageFix"/>
<feColorMatrix in="SourceAlpha" type="matrix" values="0 0 0 0 0 0 0 0 0 0 0 0 0 0 0 0 0 0 127 0" result="hardAlpha"/>
<feOffset dy="8"/>
<feGaussianBlur stdDeviation="28"/>
<feComposite in2="hardAlpha" operator="out"/>
<feColorMatrix type="matrix" values="0 0 0 0 0.0117647 0 0 0 0 0.0980392 0 0 0 0 0.282353 0 0 0 0.04 0"/>
<feBlend mode="normal" in2="BackgroundImageFix" result="effect1_dropShadow_688_1007"/>
<feBlend mode="normal" in="SourceGraphic" in2="effect1_dropShadow_688_1007" result="shape"/>
</filter>
<filter id="filter1_d_688_1007" x="4.80049" y="11.2" width="58.3995" height="62.4005" filterUnits="userSpaceOnUse" color-interpolation-filters="sRGB">
<feFlood flood-opacity="0" result="BackgroundImageFix"/>
<feColorMatrix in="SourceAlpha" type="matrix" values="0 0 0 0 0 0 0 0 0 0 0 0 0 0 0 0 0 0 127 0" result="hardAlpha"/>
<feOffset dy="6.4"/>
<feGaussianBlur stdDeviation="9.6"/>
<feColorMatrix type="matrix" values="0 0 0 0 0.0627451 0 0 0 0 0.117647 0 0 0 0 0.211765 0 0 0 0.1 0"/>
<feBlend mode="normal" in2="BackgroundImageFix" result="effect1_dropShadow_688_1007"/>
<feBlend mode="normal" in="SourceGraphic" in2="effect1_dropShadow_688_1007" result="shape"/>
</filter>
<radialGradient id="paint0_radial_688_1007" cx="0" cy="0" r="1" gradientUnits="userSpaceOnUse" gradientTransform="translate(83.7722 114.488) rotate(-49.416) scale(21.9994)">
<stop stop-color="#6420FF"/>
<stop offset="1" stop-color="#6420FF" stop-opacity="0"/>
</radialGradient>
<radialGradient id="paint1_radial_688_1007" cx="0" cy="0" r="1" gradientUnits="userSpaceOnUse" gradientTransform="translate(85.8081 92.511) rotate(54.703) scale(24.8083)">
<stop stop-color="#00C4CC"/>
<stop offset="1" stop-color="#00C4CC" stop-opacity="0"/>
</radialGradient>
<radialGradient id="paint2_radial_688_1007" cx="0" cy="0" r="1" gradientUnits="userSpaceOnUse" gradientTransform="translate(83.7721 114.488) rotate(-45.1954) scale(21.7331 9.99532)">
<stop stop-color="#6420FF"/>
<stop offset="1" stop-color="#6420FF" stop-opacity="0"/>
</radialGradient>
<radialGradient id="paint3_radial_688_1007" cx="0" cy="0" r="1" gradientUnits="userSpaceOnUse" gradientTransform="translate(89.9101 93.1099) rotate(66.5198) scale(22.3942 37.5152)">
<stop stop-color="#00C4CC" stop-opacity="0.725916"/>
<stop offset="0.0001" stop-color="#00C4CC"/>
<stop offset="1" stop-color="#00C4CC" stop-opacity="0"/>
</radialGradient>
<radialGradient id="paint4_radial_688_1007" cx="0" cy="0" r="1" gradientUnits="userSpaceOnUse" gradientTransform="translate(157 102.205) rotate(90) scale(39.8462 37)">
<stop stop-color="white"/>
<stop offset="1" stop-color="white" stop-opacity="0"/>
</radialGradient>
<linearGradient id="paint5_linear_688_1007" x1="24.0005" y1="45.3166" x2="43.9998" y2="45.3166" gradientUnits="userSpaceOnUse">
<stop stop-color="#8930FD"/>
<stop offset="1" stop-color="#49CCF9"/>
</linearGradient>
<linearGradient id="paint6_linear_688_1007" x1="24.4355" y1="32.0319" x2="43.5977" y2="32.0319" gradientUnits="userSpaceOnUse">
<stop stop-color="#FF02F0"/>
<stop offset="1" stop-color="#FFC800"/>
</linearGradient>
<radialGradient id="paint7_radial_688_1007" cx="0" cy="0" r="1" gradientUnits="userSpaceOnUse" gradientTransform="translate(34.0001 88.6568) rotate(90) scale(29.7203)">
<stop stop-color="#FF78A1"/>
<stop offset="0.512574" stop-color="#FE375C"/>
<stop offset="1" stop-color="#FF0000"/>
</radialGradient>
<linearGradient id="paint8_linear_688_1007" x1="105" y1="100" x2="0" y2="100" gradientUnits="userSpaceOnUse">
<stop stop-color="#E3EAFC" stop-opacity="0"/>
<stop offset="1" stop-color="#E3EAFC"/>
</linearGradient>
<linearGradient id="paint9_linear_688_1007" x1="105" y1="100" x2="0" y2="100" gradientUnits="userSpaceOnUse">
<stop stop-color="#E3EAFC" stop-opacity="0"/>
<stop offset="1" stop-color="#E3EAFC"/>
</linearGradient>
<clipPath id="clip0_688_1007">
<rect x="129" y="76" width="56" height="56" rx="28" fill="white"/>
</clipPath>
</defs>
</svg>
