<svg width="299" height="186" viewBox="0 0 299 186" fill="none" xmlns="http://www.w3.org/2000/svg">
<g filter="url(#filter0_d_659_942)">
<path d="M1.47562 5.14608C0.959102 3.34479 0.700845 2.44414 0.868246 1.75613C1.0155 1.15095 1.38627 0.658914 1.92742 0.350556C2.54263 0 3.47958 0 5.35347 0H54.8731C56.747 0 57.6839 0 58.5002 0.350556C59.2182 0.658914 59.8711 1.15095 60.3654 1.75613C60.9274 2.44414 61.1856 3.34479 61.7022 5.14609L83.3445 80.622C83.8611 82.4233 84.1193 83.324 83.9519 84.012C83.8047 84.6172 83.4339 85.1092 82.8927 85.4175C82.2775 85.7681 81.3406 85.7681 79.4667 85.7681H29.9471C28.0732 85.7681 27.1362 85.7681 26.32 85.4175C25.602 85.1092 24.9491 84.6172 24.4547 84.012C23.8928 83.324 23.6345 82.4233 23.118 80.622L1.47562 5.14608Z" fill="white" shape-rendering="crispEdges"/>
<g clip-path="url(#clip0_659_942)">
<path d="M5.25181 6.64703C4.90747 5.44617 4.7353 4.84573 4.8469 4.38706C4.94506 3.98361 5.19225 3.65558 5.55302 3.45001C5.96316 3.21631 6.58779 3.21631 7.83705 3.21631H54.2338C55.4831 3.21631 56.1077 3.21631 56.6519 3.45001C57.1305 3.65558 57.5658 3.98361 57.8954 4.38706C58.27 4.84573 58.4422 5.44617 58.7865 6.64703L69.894 45.3836C70.2384 46.5844 70.4106 47.1849 70.299 47.6435C70.2008 48.047 69.9536 48.375 69.5928 48.5806C69.1827 48.8143 68.5581 48.8143 67.3088 48.8143H20.9121C19.6628 48.8143 19.0382 48.8143 18.494 48.5806C18.0153 48.375 17.58 48.047 17.2505 47.6435C16.8758 47.1849 16.7037 46.5844 16.3593 45.3836L5.25181 6.64703Z" fill="#3EC775"/>
<g filter="url(#filter1_d_659_942)">
<path fill-rule="evenodd" clip-rule="evenodd" d="M16.6683 40.2373H14.8838L17.3432 48.8141H26.2656L25.7737 47.0988C25.085 44.697 24.7407 43.4962 23.9914 42.5788C23.3323 41.7719 22.4617 41.1159 21.5044 40.7047C20.4161 40.2373 19.1668 40.2373 16.6683 40.2373ZM19.1518 43.4534C17.9199 43.4534 17.1965 44.4134 17.5361 45.5976C17.8756 46.7818 19.1496 47.7418 20.3815 47.7418C21.6134 47.7418 22.3368 46.7818 21.9973 45.5976C21.6577 44.4134 20.3838 43.4534 19.1518 43.4534Z" fill="white"/>
</g>
</g>
<path d="M20.3213 54.3784L19.6506 52.0393H20.0177L20.6013 54.0746H21.704L21.7911 54.3784H20.3213ZM22.7627 54.3784H22.373L22.5779 52.0393H23.0021L24.5485 54.3784H24.1588L22.922 52.4642H22.9029L22.7627 54.3784ZM22.5654 53.4624H23.8296L23.9148 53.7594H22.6505L22.5654 53.4624ZM24.4101 52.0393L25.6336 53.9444H25.661L25.7919 52.0393H26.1888L25.9838 54.3784H25.5597L24.0132 52.0393H24.4101ZM27.434 54.3784L26.7633 52.0393H28.2889L28.376 52.3431H27.2175L27.4219 53.0558H28.5008L28.5875 53.3585H27.5087L27.714 54.0746H28.8868L28.9739 54.3784H27.434ZM30.9664 52.0393L31.6372 54.3784H31.2997L29.5709 52.6629H29.5483L30.0403 54.3784H29.6731L29.0024 52.0393H29.3422L31.0728 53.7571H31.0954L30.6028 52.0393H30.9664ZM33.1836 54.3784H32.3958L31.7251 52.0393H32.5378C32.7762 52.0393 32.9944 52.0861 33.1924 52.1798C33.3901 52.2727 33.5595 52.4063 33.7006 52.5807C33.8423 52.7543 33.9479 52.9625 34.0176 53.2054C34.0874 53.4491 34.1011 53.6585 34.0587 53.8336C34.017 54.0087 33.9226 54.1435 33.7754 54.2379C33.628 54.3316 33.4307 54.3784 33.1836 54.3784ZM32.6745 54.07H33.0749C33.2603 54.07 33.4048 54.0365 33.5083 53.9695C33.6117 53.9018 33.6755 53.8039 33.6998 53.676C33.7239 53.5473 33.7094 53.3905 33.6564 53.2054C33.6037 53.0219 33.5286 52.8662 33.4309 52.7383C33.334 52.6104 33.2163 52.5133 33.0777 52.447C32.9391 52.3808 32.7811 52.3477 32.6036 52.3477H32.1806L32.6745 54.07ZM35.0335 54.3784L34.3628 52.0393H35.8884L35.9756 52.3431H34.8171L35.0214 53.0558H36.1003L36.1871 53.3585H35.1082L35.3136 54.0746H36.4863L36.5734 54.3784H35.0335ZM37.2727 54.3784L36.6019 52.0393H37.4693C37.6578 52.0393 37.8232 52.0705 37.9655 52.1329C38.1085 52.1954 38.2268 52.2818 38.3202 52.3922C38.4135 52.5019 38.4807 52.6286 38.522 52.7725C38.563 52.9157 38.5679 53.0417 38.5365 53.1506C38.5057 53.2587 38.4364 53.3429 38.3285 53.403C38.2214 53.4632 38.0735 53.4932 37.885 53.4932H37.228L37.1408 53.1894H37.7646C37.8835 53.1894 37.9754 53.1731 38.0405 53.1403C38.1063 53.1076 38.1477 53.06 38.1647 52.9976C38.1816 52.9351 38.1776 52.8601 38.1524 52.7725C38.1271 52.6842 38.0874 52.6077 38.0331 52.543C37.9797 52.4783 37.9105 52.4288 37.8254 52.3945C37.7409 52.3595 37.6381 52.342 37.5169 52.342H37.0559L37.6398 54.3784H37.2727ZM38.1713 53.3231L39.0751 54.3784H38.6569L37.7649 53.3231H38.1713Z" fill="#6F7286"/>
<path d="M64.5922 54.3784L64.5189 54.1226L65.1071 53.3025C65.1695 53.2134 65.2196 53.1354 65.2574 53.0684C65.2958 53.0006 65.3205 52.9363 65.3316 52.8753C65.3426 52.8144 65.3383 52.7497 65.3187 52.6812C65.2964 52.6035 65.2582 52.5365 65.204 52.4802C65.1496 52.423 65.0852 52.3793 65.0107 52.3488C64.936 52.3176 64.8575 52.302 64.7751 52.302C64.688 52.302 64.6168 52.3191 64.5617 52.3534C64.5066 52.3876 64.4705 52.436 64.4536 52.4984C64.4366 52.5609 64.4402 52.634 64.4642 52.7177H64.1137C64.0728 52.5753 64.0712 52.4508 64.1088 52.3442C64.1463 52.2376 64.2161 52.155 64.3181 52.0964C64.4199 52.037 64.5464 52.0073 64.6977 52.0073C64.8506 52.0073 64.9937 52.0366 65.1269 52.0952C65.2607 52.1531 65.3749 52.2323 65.4695 52.3328C65.5639 52.4326 65.629 52.5453 65.6651 52.6709C65.69 52.7577 65.6973 52.8426 65.687 52.9256C65.6775 53.0086 65.6458 53.1011 65.5919 53.2031C65.5378 53.3044 65.4574 53.4274 65.3508 53.5721L65.0067 54.0586L65.0116 54.0757H66.1071L66.1939 54.3784H64.5922ZM67.7256 54.4172C67.5376 54.4165 67.3636 54.3689 67.2034 54.2745C67.0433 54.1801 66.9021 54.0426 66.7798 53.8622C66.6576 53.6817 66.56 53.4643 66.4871 53.21C66.4144 52.9564 66.3875 52.7398 66.4065 52.5601C66.4263 52.3804 66.4891 52.2433 66.5951 52.1489C66.7019 52.0545 66.8484 52.0073 67.0346 52.0073C67.2207 52.0073 67.394 52.0549 67.5543 52.1501C67.7145 52.2445 67.8556 52.3815 67.9776 52.5612C68.1002 52.7402 68.1978 52.9564 68.2706 53.21C68.3437 53.4651 68.3709 53.6828 68.3521 53.8633C68.3332 54.043 68.2708 54.1804 68.165 54.2756C68.059 54.37 67.9125 54.4172 67.7256 54.4172ZM67.6381 54.1123C67.8029 54.1123 67.9095 54.035 67.9578 53.8804C68.007 53.7259 67.9896 53.5024 67.9058 53.21C67.8501 53.0158 67.7817 52.8517 67.7005 52.7177C67.6198 52.5829 67.53 52.4809 67.4309 52.4116C67.3324 52.3416 67.2289 52.3065 67.1204 52.3065C66.9564 52.3065 66.8499 52.3842 66.801 52.5395C66.7521 52.6949 66.769 52.9184 66.8519 53.21C66.9078 53.4049 66.976 53.5698 67.0566 53.7045C67.1379 53.8386 67.2276 53.9402 67.3259 54.0095C67.424 54.078 67.528 54.1123 67.6381 54.1123ZM70.1085 54.4172C69.9205 54.4165 69.7465 54.3689 69.5863 54.2745C69.4262 54.1801 69.285 54.0426 69.1627 53.8622C69.0405 53.6817 68.9429 53.4643 68.87 53.21C68.7973 52.9564 68.7704 52.7398 68.7894 52.5601C68.8091 52.3804 68.872 52.2433 68.978 52.1489C69.0848 52.0545 69.2313 52.0073 69.4174 52.0073C69.6036 52.0073 69.7768 52.0549 69.9372 52.1501C70.0974 52.2445 70.2384 52.3815 70.3605 52.5612C70.4831 52.7402 70.5807 52.9564 70.6534 53.21C70.7266 53.4651 70.7538 53.6828 70.735 53.8633C70.716 54.043 70.6537 54.1804 70.5479 54.2756C70.4419 54.37 70.2954 54.4172 70.1085 54.4172ZM70.021 54.1123C70.1858 54.1123 70.2923 54.035 70.3407 53.8804C70.3898 53.7259 70.3725 53.5024 70.2887 53.21C70.233 53.0158 70.1645 52.8517 70.0833 52.7177C70.0027 52.5829 69.9129 52.4809 69.8138 52.4116C69.7153 52.3416 69.6118 52.3065 69.5032 52.3065C69.3393 52.3065 69.2328 52.3842 69.1839 52.5395C69.135 52.6949 69.1519 52.9184 69.2347 53.21C69.2906 53.4049 69.3589 53.5698 69.4395 53.7045C69.5207 53.8386 69.6105 53.9402 69.7088 54.0095C69.8068 54.078 69.9109 54.1123 70.021 54.1123Z" fill="#6F7286"/>
<path d="M23.39 64.1019L22.0158 59.3096H25.3015L25.4952 59.985H22.9991L23.3939 61.3616H25.7561L25.9498 62.037H23.5876L23.986 63.4265H26.482L26.6757 64.1019H23.39ZM28.8814 64.1791C28.6137 64.1791 28.3481 64.1319 28.0846 64.0376C27.8256 63.9432 27.5867 63.8103 27.368 63.6387C27.1538 63.4672 26.9777 63.2656 26.84 63.0341L27.4391 62.7896C27.5934 63.0169 27.7799 63.1927 27.9985 63.3171C28.2171 63.4415 28.4468 63.5036 28.6877 63.5036C28.884 63.5036 29.0431 63.4672 29.1649 63.3943C29.2913 63.3214 29.3755 63.2185 29.4177 63.0855C29.4643 62.9526 29.4606 62.7918 29.4065 62.6031C29.3536 62.4187 29.2657 62.26 29.1429 62.1271C29.0244 61.9941 28.8818 61.8933 28.7149 61.8247C28.5524 61.7561 28.3731 61.7218 28.1768 61.7218C28.0965 61.7218 28.0158 61.7282 27.9347 61.7411C27.8581 61.754 27.7916 61.7711 27.7353 61.7926L27.4599 61.4388L28.3454 59.9528H26.2241L26.0397 59.3096H29.0443L29.2195 59.9207L28.3589 61.4002L28.2688 61.1557C28.5689 61.16 28.8505 61.2244 29.1137 61.3487C29.3757 61.4688 29.5999 61.636 29.7863 61.8505C29.9759 62.0606 30.1107 62.305 30.1906 62.5838C30.2767 62.884 30.2789 63.1563 30.1973 63.4007C30.1145 63.6409 29.9596 63.8317 29.7325 63.9732C29.5086 64.1105 29.2249 64.1791 28.8814 64.1791ZM31.5095 64.1019L30.1354 59.3096H31.7682C32.2857 59.3096 32.7629 59.4104 33.1999 59.6119C33.6401 59.8092 34.0167 60.0879 34.3297 60.4482C34.6427 60.8084 34.8674 61.2265 35.0039 61.7025C35.1392 62.1742 35.1542 62.5924 35.0491 62.9569C34.9427 63.3171 34.7266 63.598 34.4007 63.7995C34.0793 64.0011 33.6598 64.1019 33.1423 64.1019H31.5095ZM32.1055 63.4265H32.962C33.3145 63.4265 33.5998 63.3557 33.818 63.2142C34.0406 63.0727 34.1864 62.8733 34.2554 62.6159C34.3243 62.3586 34.3084 62.0542 34.2076 61.7025C34.1068 61.3509 33.9465 61.0485 33.7267 60.7955C33.5101 60.5382 33.2522 60.3388 32.9529 60.1973C32.6535 60.0558 32.3277 59.985 31.9752 59.985H31.1187L32.1055 63.4265ZM35.8628 64.1019L36.2419 59.3096H37.2189L40.3463 64.1019H39.5032L38.8137 63.0276H36.7861L36.706 64.1019H35.8628ZM36.8199 62.3522H38.3791L36.7764 59.8435H36.9973L36.8199 62.3522ZM40.9753 64.1019L39.6011 59.3096H42.8466L43.0403 59.985H40.5844L40.9976 61.4259H43.1858L43.3795 62.1013H41.1912L41.7649 64.1019H40.9753ZM44.9206 64.1019L43.5465 59.3096H45.1793C45.6968 59.3096 46.174 59.4104 46.611 59.6119C47.0513 59.8092 47.4279 60.0879 47.7408 60.4482C48.0538 60.8084 48.2785 61.2265 48.415 61.7025C48.5503 62.1742 48.5654 62.5924 48.4602 62.9569C48.3538 63.3171 48.1377 63.598 47.8118 63.7995C47.4904 64.0011 47.071 64.1019 46.5535 64.1019H44.9206ZM45.5166 63.4265H46.3732C46.7256 63.4265 47.0109 63.3557 47.2291 63.2142C47.4517 63.0727 47.5975 62.8733 47.6665 62.6159C47.7355 62.3586 47.7195 62.0542 47.6187 61.7025C47.5179 61.3509 47.3576 61.0485 47.1378 60.7955C46.9213 60.5382 46.6633 60.3388 46.364 60.1973C46.0647 60.0558 45.7388 59.985 45.3863 59.985H44.5298L45.5166 63.4265Z" fill="#0E0E0F"/>
<rect x="27.3579" y="71.4272" width="32.5054" height="8.98185" rx="4.49092" transform="rotate(-1.01959 27.3579 71.4272)" fill="#E8EDF2"/>
</g>
<g filter="url(#filter2_d_659_942)">
<path d="M67.7436 14.96C68.7433 11.4737 69.2432 9.73051 70.3308 8.39891C71.2875 7.2276 72.5513 6.2753 73.9409 5.67848C75.5208 5 77.3342 5 80.961 5H176.804C180.431 5 182.244 5 183.435 5.67848C184.482 6.2753 185.2 7.2276 185.485 8.39891C185.809 9.73051 185.309 11.4737 184.309 14.96L142.421 161.04C141.422 164.526 140.922 166.269 139.834 167.601C138.877 168.772 137.614 169.725 136.224 170.322C134.644 171 132.831 171 129.204 171H33.3613C29.7344 171 27.921 171 26.7303 170.322C25.6829 169.725 24.9653 168.772 24.6803 167.601C24.3563 166.269 24.8562 164.526 25.8559 161.04L67.7436 14.96Z" fill="white" shape-rendering="crispEdges"/>
<path d="M73.3865 17.8651C74.053 15.5409 74.3862 14.3788 75.1113 13.491C75.7492 12.7102 76.5917 12.0753 77.5181 11.6774C78.5713 11.2251 79.7802 11.2251 82.1981 11.2251H171.997C174.415 11.2251 175.624 11.2251 176.417 11.6774C177.116 12.0753 177.594 12.7102 177.784 13.491C178 14.3788 177.667 15.5409 177 17.8651L154.648 95.818C153.981 98.1422 153.648 99.3043 152.923 100.192C152.285 100.973 151.443 101.608 150.516 102.006C149.463 102.458 148.254 102.458 145.836 102.458H56.0375C53.6196 102.458 52.4107 102.458 51.6169 102.006C50.9186 101.608 50.4402 100.973 50.2502 100.192C50.0342 99.3043 50.3674 98.1422 51.0339 95.818L73.3865 17.8651Z" fill="#0080FF"/>
<path d="M48.8212 116.081L48.8131 111.554H49.5605L49.4728 115.06H49.5165L51.4761 111.554H52.2166L52.165 115.062H52.2087L54.13 111.554H54.8797L52.273 116.081H51.5578L51.539 112.69H51.5022L49.5387 116.081H48.8212ZM54.6542 116.081H53.8999L56.893 111.554H57.714L58.1106 116.081H57.3563L57.0872 112.376H57.0504L54.6542 116.081ZM55.2891 114.308H57.7359L57.5711 114.883H55.1243L55.2891 114.308ZM59.5633 112.142L59.7319 111.554H63.3768L63.2082 112.142H61.7387L60.6092 116.081H59.9009L61.0305 112.142H59.5633ZM63.3159 116.081L64.614 111.554H67.5668L67.3982 112.142H65.156L64.7605 113.522H66.8486L66.6806 114.107H64.5925L64.1951 115.493H66.4648L66.2962 116.081H63.3159ZM67.6495 116.081L68.9477 111.554H70.6265C70.9914 111.554 71.2768 111.615 71.4829 111.735C71.6904 111.856 71.8234 112.023 71.8817 112.237C71.9404 112.449 71.9299 112.695 71.85 112.973C71.7705 113.25 71.64 113.494 71.4585 113.705C71.2789 113.914 71.0513 114.077 70.7757 114.194C70.5016 114.31 70.1821 114.368 69.8173 114.368H68.5455L68.7141 113.78H69.9215C70.1514 113.78 70.3476 113.748 70.5098 113.685C70.6737 113.622 70.8066 113.53 70.9087 113.409C71.0108 113.288 71.0862 113.143 71.1348 112.973C71.1838 112.802 71.1918 112.654 71.1587 112.529C71.1272 112.404 71.0481 112.308 70.9215 112.242C70.7968 112.174 70.6172 112.14 70.3826 112.14H69.4903L68.3601 116.081H67.6495ZM70.5602 114.039L71.1381 116.081H70.3287L69.7737 114.039H70.5602Z" fill="#6F7286"/>
<rect x="113.157" y="107.646" width="32.5054" height="12" rx="6" transform="rotate(0.11607 113.157 107.646)" fill="#E8EDF2"/>
<path d="M47.3991 135.393C46.717 135.393 46.1169 135.273 45.5987 135.032C45.0892 134.791 44.6793 134.459 44.369 134.036C44.0696 133.605 43.8824 133.098 43.8072 132.517C43.7321 131.936 43.7944 131.297 43.9944 130.6C44.1919 129.911 44.4905 129.276 44.8903 128.695C45.301 128.106 45.7829 127.599 46.336 127.176C46.8915 126.745 47.4918 126.413 48.137 126.18C48.7845 125.939 49.4537 125.819 50.1444 125.819C50.8265 125.819 51.4031 125.931 51.8742 126.155C52.3539 126.379 52.7271 126.674 52.9936 127.039C53.2626 127.396 53.4184 127.786 53.4611 128.21L51.9097 128.832C51.8453 128.334 51.6283 127.931 51.2587 127.624C50.9001 127.309 50.4014 127.151 49.7624 127.151C49.1235 127.151 48.5163 127.297 47.9408 127.587C47.3653 127.878 46.8657 128.28 46.4418 128.795C46.0266 129.309 45.7202 129.911 45.5227 130.6C45.3251 131.289 45.2852 131.895 45.4029 132.418C45.5317 132.932 45.8005 133.335 46.2094 133.625C46.6206 133.907 47.1457 134.049 47.7847 134.049C48.4236 134.049 49.0116 133.895 49.5487 133.588C50.0944 133.281 50.5422 132.878 50.8922 132.38L52.0866 133.003C51.8036 133.418 51.424 133.808 50.948 134.173C50.472 134.538 49.9299 134.833 49.3217 135.057C48.7221 135.281 48.0812 135.393 47.3991 135.393ZM53.0882 135.244L55.7478 125.969H62.0294L61.6545 127.276H56.9012L56.1016 130.065H60.3368L59.9619 131.372H55.7267L54.6165 135.244H53.0882ZM60.7243 135.244L63.3839 125.969H66.5441C67.5457 125.969 68.3576 126.164 68.9796 126.554C69.6127 126.935 70.0322 127.475 70.2381 128.172C70.444 128.869 70.4149 129.679 70.1507 130.6C69.8889 131.513 69.454 132.322 68.8458 133.028C68.2401 133.725 67.51 134.269 66.6556 134.659C65.8098 135.049 64.8861 135.244 63.8845 135.244H60.7243ZM62.6274 133.937H64.2853C64.9674 133.937 65.5981 133.8 66.1774 133.526C66.7654 133.252 67.269 132.866 67.6881 132.368C68.1072 131.87 68.4143 131.281 68.6095 130.6C68.8046 129.919 68.8299 129.334 68.6854 128.844C68.5519 128.346 68.274 127.961 67.8518 127.687C67.4295 127.413 66.8773 127.276 66.1952 127.276H64.5374L62.6274 133.937ZM74.8482 135.393C74.166 135.393 73.5659 135.273 73.0478 135.032C72.5383 134.791 72.1284 134.459 71.818 134.036C71.5187 133.605 71.3315 133.098 71.2563 132.517C71.1811 131.936 71.2435 131.297 71.4434 130.6C71.641 129.911 71.9396 129.276 72.3393 128.695C72.7501 128.106 73.232 127.599 73.7851 127.176C74.3406 126.745 74.9409 126.413 75.586 126.18C76.2336 125.939 76.9027 125.819 77.5935 125.819C78.2756 125.819 78.8522 125.931 79.3233 126.155C79.803 126.379 80.1761 126.674 80.4427 127.039C80.7116 127.396 80.8675 127.786 80.9101 128.21L79.3587 128.832C79.2943 128.334 79.0773 127.931 78.7078 127.624C78.3492 127.309 77.8504 127.151 77.2115 127.151C76.5725 127.151 75.9653 127.297 75.3899 127.587C74.8144 127.878 74.3147 128.28 73.8909 128.795C73.4756 129.309 73.1693 129.911 72.9717 130.6C72.7742 131.289 72.7343 131.895 72.852 132.418C72.9808 132.932 73.2496 133.335 73.6584 133.625C74.0697 133.907 74.5948 134.049 75.2337 134.049C75.8727 134.049 76.4607 133.895 76.9977 133.588C77.5434 133.281 77.9913 132.878 78.3413 132.38L79.5357 133.003C79.2526 133.418 78.8731 133.808 78.3971 134.173C77.9211 134.538 77.379 134.833 76.7707 135.057C76.1712 135.281 75.5303 135.393 74.8482 135.393ZM80.5372 135.244L83.1969 125.969H89.4784L89.1036 127.276H84.3503L83.5506 130.065H87.7858L87.411 131.372H83.1758L82.0655 135.244H80.5372ZM92.2158 135.244L92.8156 133.152H88.2177L88.5675 131.932L94.8107 125.969H96.326L94.616 131.932H95.95L95.6002 133.152H94.2661L93.6664 135.244H92.2158ZM89.5408 132.467L89.4483 131.932H93.1654L94.5399 127.139L94.9186 127.263L89.5408 132.467Z" fill="#0E0E0F"/>
<rect x="38.1074" y="148.426" width="98.0286" height="12" rx="6" transform="rotate(0.11607 38.1074 148.426)" fill="#E8EDF2"/>
</g>
<g filter="url(#filter3_d_659_942)">
<path d="M119.467 12.2337C118.354 8.3535 117.798 6.4134 118.158 4.93135C118.476 3.62771 119.274 2.56782 120.44 1.90358C121.765 1.14844 123.784 1.14844 127.82 1.14844H234.491C238.528 1.14844 240.546 1.14844 242.304 1.90358C243.851 2.56782 245.257 3.62771 246.322 4.93135C247.533 6.4134 248.089 8.3535 249.202 12.2337L295.822 174.818C296.935 178.698 297.491 180.638 297.13 182.12C296.813 183.424 296.014 184.484 294.849 185.148C293.524 185.903 291.505 185.903 287.469 185.903H180.798C176.761 185.903 174.743 185.903 172.984 185.148C171.438 184.484 170.031 183.424 168.966 182.12C167.756 180.638 167.2 178.698 166.087 174.818L119.467 12.2337Z" fill="white" shape-rendering="crispEdges"/>
<path d="M131.404 18.3416L129.959 13.3029H133.21L133.398 13.9573H130.938L131.378 15.4926H133.605L133.792 16.1445H131.565L132.195 18.3416H131.404ZM136.108 18.3416L134.663 13.3029H135.454L136.711 17.6872H139.086L139.274 18.3416H136.108ZM144.283 15.8222C144.438 16.3602 144.468 16.8228 144.374 17.2099C144.28 17.5953 144.084 17.8922 143.788 18.1005C143.492 18.3072 143.118 18.4105 142.666 18.4105C142.212 18.4105 141.777 18.3072 141.361 18.1005C140.947 17.8922 140.581 17.5945 140.266 17.2074C139.95 16.8203 139.715 16.3586 139.561 15.8222C139.407 15.2843 139.377 14.8225 139.471 14.4371C139.565 14.05 139.76 13.7531 140.055 13.5464C140.352 13.3381 140.728 13.234 141.181 13.234C141.634 13.234 142.067 13.3381 142.482 13.5464C142.898 13.7531 143.263 14.05 143.579 14.4371C143.894 14.8225 144.129 15.2843 144.283 15.8222ZM143.5 15.8222C143.383 15.4122 143.215 15.0669 142.996 14.7864C142.779 14.5043 142.53 14.2911 142.249 14.1468C141.97 14.0008 141.681 13.9278 141.38 13.9278C141.078 13.9278 140.83 14.0008 140.634 14.1468C140.439 14.2911 140.312 14.5043 140.255 14.7864C140.199 15.0669 140.229 15.4122 140.347 15.8222C140.465 16.2323 140.632 16.5784 140.849 16.8605C141.068 17.141 141.317 17.3542 141.596 17.5002C141.875 17.6445 142.165 17.7167 142.467 17.7167C142.767 17.7167 143.015 17.6445 143.211 17.5002C143.408 17.3542 143.535 17.141 143.591 16.8605C143.648 16.5784 143.618 16.2323 143.5 15.8222ZM146.472 18.3416L145.028 13.3029H146.896C147.302 13.3029 147.658 13.3701 147.965 13.5046C148.273 13.6391 148.528 13.8253 148.729 14.0631C148.93 14.2993 149.075 14.5724 149.164 14.8824C149.252 15.1908 149.262 15.4622 149.195 15.6968C149.129 15.9297 148.979 16.1109 148.747 16.2405C148.516 16.3701 148.198 16.4349 147.792 16.4349H146.376L146.189 15.7804H147.532C147.788 15.7804 147.986 15.7452 148.126 15.6746C148.268 15.6041 148.357 15.5016 148.394 15.3671C148.431 15.2326 148.422 15.071 148.368 14.8824C148.313 14.6921 148.227 14.5273 148.111 14.3879C147.996 14.2485 147.846 14.1418 147.663 14.068C147.481 13.9926 147.26 13.9549 146.999 13.9549H146.005L147.263 18.3416H146.472ZM148.408 16.0683L150.355 18.3416H149.454L147.533 16.0683H148.408ZM152.041 18.3416H151.202L151.643 13.3029H152.557L155.888 18.3416H155.049L152.384 14.2181H152.343L152.041 18.3416ZM151.616 16.3684H154.339L154.523 17.0081H151.8L151.616 16.3684ZM157.126 18.3416L155.681 13.3029H156.472L157.729 17.6872H160.104L160.292 18.3416H157.126Z" fill="#6F7286"/>
<rect x="206.576" y="10.3862" width="32.5054" height="12" rx="6" transform="rotate(0.11607 206.576 10.3862)" fill="#E8EDF2"/>
<path d="M137.041 36.2964L134.372 26.9866H140.677L141.053 28.2987H136.282L137.084 31.0979H141.335L141.712 32.41H137.461L138.575 36.2964H137.041ZM144.717 36.2964L142.047 26.9866H145.219C146.225 26.9866 147.152 27.1823 148.001 27.5739C148.856 27.9571 149.588 28.4986 150.196 29.1984C150.804 29.8982 151.24 30.7105 151.505 31.6352C151.768 32.5516 151.797 33.3639 151.593 34.072C151.387 34.7718 150.967 35.3175 150.334 35.709C149.709 36.1006 148.894 36.2964 147.889 36.2964H144.717ZM145.875 34.9842H147.539C148.223 34.9842 148.778 34.8468 149.202 34.5719C149.634 34.2969 149.917 33.9096 150.051 33.4097C150.185 32.9098 150.154 32.3183 149.958 31.6352C149.763 30.9521 149.451 30.3647 149.024 29.8732C148.604 29.3734 148.102 28.986 147.521 28.7111C146.939 28.4361 146.306 28.2987 145.622 28.2987H143.958L145.875 34.9842ZM154.437 36.2964L151.767 26.9866H158.072L158.449 28.2987H153.678L154.48 31.0979H158.731L159.108 32.41H154.857L155.971 36.2964H154.437ZM162.491 36.2964L164.624 32.1726L164.93 32.335C164.845 32.46 164.739 32.5599 164.613 32.6349C164.496 32.7099 164.36 32.7641 164.205 32.7974C164.059 32.8307 163.894 32.8474 163.712 32.8474C163.132 32.8474 162.576 32.7224 162.045 32.4725C161.512 32.2142 161.047 31.8643 160.652 31.4228C160.263 30.9729 159.987 30.4647 159.825 29.8982C159.655 29.3067 159.648 28.7819 159.802 28.3237C159.957 27.8655 160.243 27.5031 160.661 27.2365C161.078 26.9699 161.603 26.8366 162.236 26.8366C162.877 26.8366 163.479 26.9699 164.041 27.2365C164.611 27.5031 165.102 27.8696 165.513 28.3362C165.93 28.7944 166.224 29.3192 166.393 29.9107C166.484 30.2273 166.539 30.5397 166.558 30.8479C166.577 31.1562 166.548 31.4769 166.47 31.8102C166.39 32.1351 166.25 32.4933 166.05 32.8849L164.324 36.2964H162.491ZM163.605 31.6102C163.943 31.6102 164.22 31.5352 164.437 31.3853C164.654 31.2353 164.804 31.0312 164.886 30.773C164.968 30.5147 164.961 30.219 164.865 29.8857C164.767 29.5441 164.603 29.2442 164.373 28.986C164.141 28.7194 163.87 28.5153 163.561 28.3737C163.258 28.2237 162.941 28.1487 162.612 28.1487C162.283 28.1487 162.005 28.2237 161.78 28.3737C161.56 28.5153 161.411 28.7194 161.331 28.986C161.249 29.2442 161.257 29.5441 161.355 29.8857C161.451 30.219 161.609 30.5147 161.831 30.773C162.061 31.0312 162.331 31.2353 162.643 31.3853C162.955 31.5352 163.275 31.6102 163.605 31.6102ZM169.878 36.2964L167.208 26.9866H173.591L173.967 28.2987H169.118L169.885 30.9729H174.474L174.85 32.285H170.261L171.035 34.9842H175.884L176.261 36.2964H169.878ZM177.769 36.2964L175.1 26.9866H181.483L181.859 28.2987H177.01L177.777 30.9729H182.366L182.742 32.285H178.153L178.927 34.9842H183.776L184.152 36.2964H177.769Z" fill="#0E0E0F"/>
<rect x="143.629" y="51.7832" width="105.803" height="12" rx="6" transform="rotate(-1.09234 143.629 51.7832)" fill="#E8EDF2"/>
<path d="M146.223 80.4092C145.481 77.8224 145.11 76.529 145.351 75.541C145.562 74.6719 146.095 73.9653 146.872 73.5225C147.755 73.019 149.101 73.019 151.792 73.019H251.736C254.427 73.019 255.773 73.019 256.945 73.5225C257.976 73.9653 258.914 74.6719 259.623 75.541C260.431 76.529 260.801 77.8224 261.543 80.4092L287.687 171.585C288.429 174.172 288.8 175.465 288.56 176.453C288.348 177.322 287.816 178.029 287.039 178.472C286.155 178.975 284.809 178.975 282.118 178.975H182.174C179.483 178.975 178.138 178.975 176.966 178.472C175.935 178.029 174.997 177.322 174.287 176.453C173.48 175.465 173.109 174.172 172.367 171.585L146.223 80.4092Z" fill="#9E00FF"/>
</g>
<defs>
<filter id="filter0_d_659_942" x="-56" y="-48" width="196.82" height="197.768" filterUnits="userSpaceOnUse" color-interpolation-filters="sRGB">
<feFlood flood-opacity="0" result="BackgroundImageFix"/>
<feColorMatrix in="SourceAlpha" type="matrix" values="0 0 0 0 0 0 0 0 0 0 0 0 0 0 0 0 0 0 127 0" result="hardAlpha"/>
<feOffset dy="8"/>
<feGaussianBlur stdDeviation="28"/>
<feComposite in2="hardAlpha" operator="out"/>
<feColorMatrix type="matrix" values="0 0 0 0 0.0117647 0 0 0 0 0.0980392 0 0 0 0 0.282353 0 0 0 0.04 0"/>
<feBlend mode="normal" in2="BackgroundImageFix" result="effect1_dropShadow_659_942"/>
<feBlend mode="normal" in="SourceGraphic" in2="effect1_dropShadow_659_942" result="shape"/>
</filter>
<filter id="filter1_d_659_942" x="14.7444" y="40.2373" width="11.6607" height="8.9949" filterUnits="userSpaceOnUse" color-interpolation-filters="sRGB">
<feFlood flood-opacity="0" result="BackgroundImageFix"/>
<feColorMatrix in="SourceAlpha" type="matrix" values="0 0 0 0 0 0 0 0 0 0 0 0 0 0 0 0 0 0 127 0" result="hardAlpha"/>
<feOffset dy="0.278827"/>
<feGaussianBlur stdDeviation="0.0697066"/>
<feComposite in2="hardAlpha" operator="out"/>
<feColorMatrix type="matrix" values="0 0 0 0 0.705882 0 0 0 0 0.698039 0 0 0 0 0.741176 0 0 0 0.08 0"/>
<feBlend mode="normal" in2="BackgroundImageFix" result="effect1_dropShadow_659_942"/>
<feBlend mode="normal" in="SourceGraphic" in2="effect1_dropShadow_659_942" result="shape"/>
</filter>
<filter id="filter2_d_659_942" x="-33" y="-43" width="276.165" height="278" filterUnits="userSpaceOnUse" color-interpolation-filters="sRGB">
<feFlood flood-opacity="0" result="BackgroundImageFix"/>
<feColorMatrix in="SourceAlpha" type="matrix" values="0 0 0 0 0 0 0 0 0 0 0 0 0 0 0 0 0 0 127 0" result="hardAlpha"/>
<feOffset dy="8"/>
<feGaussianBlur stdDeviation="28"/>
<feComposite in2="hardAlpha" operator="out"/>
<feColorMatrix type="matrix" values="0 0 0 0 0.0117647 0 0 0 0 0.0980392 0 0 0 0 0.282353 0 0 0 0.04 0"/>
<feBlend mode="normal" in2="BackgroundImageFix" result="effect1_dropShadow_659_942"/>
<feBlend mode="normal" in="SourceGraphic" in2="effect1_dropShadow_659_942" result="shape"/>
</filter>
<filter id="filter3_d_659_942" x="60.2881" y="-46.8516" width="294.712" height="296.754" filterUnits="userSpaceOnUse" color-interpolation-filters="sRGB">
<feFlood flood-opacity="0" result="BackgroundImageFix"/>
<feColorMatrix in="SourceAlpha" type="matrix" values="0 0 0 0 0 0 0 0 0 0 0 0 0 0 0 0 0 0 127 0" result="hardAlpha"/>
<feOffset dy="8"/>
<feGaussianBlur stdDeviation="28"/>
<feComposite in2="hardAlpha" operator="out"/>
<feColorMatrix type="matrix" values="0 0 0 0 0.0117647 0 0 0 0 0.0980392 0 0 0 0 0.282353 0 0 0 0.04 0"/>
<feBlend mode="normal" in2="BackgroundImageFix" result="effect1_dropShadow_659_942"/>
<feBlend mode="normal" in="SourceGraphic" in2="effect1_dropShadow_659_942" result="shape"/>
</filter>
<clipPath id="clip0_659_942">
<path d="M5.25181 6.64703C4.90747 5.44617 4.7353 4.84573 4.8469 4.38706C4.94506 3.98361 5.19225 3.65558 5.55302 3.45001C5.96316 3.21631 6.58779 3.21631 7.83705 3.21631H54.2338C55.4831 3.21631 56.1077 3.21631 56.6519 3.45001C57.1305 3.65558 57.5658 3.98361 57.8954 4.38706C58.27 4.84573 58.4422 5.44617 58.7865 6.64703L69.894 45.3836C70.2384 46.5844 70.4106 47.1849 70.299 47.6435C70.2008 48.047 69.9536 48.375 69.5928 48.5806C69.1827 48.8143 68.5581 48.8143 67.3088 48.8143H20.9121C19.6628 48.8143 19.0382 48.8143 18.494 48.5806C18.0153 48.375 17.58 48.047 17.2505 47.6435C16.8758 47.1849 16.7037 46.5844 16.3593 45.3836L5.25181 6.64703Z" fill="white"/>
</clipPath>
</defs>
</svg>
