<svg width="141" height="32" viewBox="0 0 141 32" fill="none" xmlns="http://www.w3.org/2000/svg">
<g clip-path="url(#clip0_770_317)">
<path d="M29.5588 9.31585L22.941 2.76958C19.2068 -0.923192 13.1548 -0.923192 9.42054 2.76958L2.80075 9.31585C-0.224229 12.3092 -0.870851 16.9232 1.21451 20.62L14.3207 7.61334C15.3493 6.60022 17.0123 6.60022 18.0388 7.61334L31.1349 20.626C33.2324 16.9312 32.5878 12.3092 29.5568 9.31385L29.5588 9.31585ZM7.68679 21.8549L4.82347 24.6844L9.42257 29.2284C13.1568 32.9212 19.2088 32.9212 22.943 29.2284L27.53 24.6924L24.6667 21.8589C23.3613 20.568 21.5932 19.8426 19.7463 19.8406L12.6092 19.8366C10.7623 19.8366 8.99014 20.562 7.68477 21.8529L7.68679 21.8549Z" fill="#606060"/>
<path d="M54.9003 6.69454V9.40217C53.7565 7.82355 51.6409 6.38281 48.5553 6.38281C43.6652 6.38281 39.7834 10.1895 39.7834 16.1203C39.7834 22.0511 43.6652 25.9996 48.5209 25.9996C51.5742 25.9996 53.7586 24.5569 54.9003 22.9124V25.6859H59.7903V6.69454H54.9003ZM49.8061 21.7793C47.2055 21.7793 44.7422 19.7211 44.7422 16.1203C44.7422 12.5194 47.2055 10.6031 49.8061 10.6031C52.4067 10.6031 54.9023 12.5914 54.9023 16.1902C54.9023 19.7891 52.4754 21.7773 49.8061 21.7773V21.7793Z" fill="#606060"/>
<path d="M74.0564 6.38278C71.5669 6.32083 69.2007 7.45784 67.7114 9.43411V6.6945H62.8557V31.6487H67.7114V22.9783C69.2249 24.9206 71.577 26.0416 74.0564 25.9976C78.9788 25.9976 82.8283 22.0531 82.8283 16.1183C82.8283 10.1835 78.9788 6.38278 74.0564 6.38278ZM72.7713 21.7793C70.1706 21.7793 67.7114 19.791 67.7114 16.1922C67.7114 12.5933 70.1706 10.6051 72.7713 10.6051C75.3719 10.6051 77.8695 12.5214 77.8695 16.1223C77.8695 19.7231 75.4062 21.7813 72.7713 21.7813V21.7793Z" fill="#606060"/>
<path d="M97.9915 6.69434L92.9641 19.9627L88.0073 6.69434H82.5615L90.2624 25.2081L87.4294 31.6505H92.5518L101.485 10.6349L103.16 6.69434H97.9936H97.9915Z" fill="#606060"/>
<path d="M114.022 10.6331V6.69252H109.722V1.99463H104.836V6.69452H102.546L101.061 10.6351H104.836V19.7931C104.836 24.1452 107.295 25.6899 110.971 25.6899H114.02V21.6454H111.767C110.241 21.6454 109.722 21.0959 109.722 19.829V10.6371H114.022V10.6331Z" fill="#606060"/>
<path d="M134.194 15.7761C134.194 10.1171 130.274 6.38037 124.729 6.38037C119.185 6.38037 115.087 10.187 115.087 16.1878C115.087 22.1885 119.146 25.9952 124.729 25.9952C129.478 25.9952 132.671 23.2176 133.707 19.7167H128.474C127.847 20.9876 126.706 22.0167 124.624 22.0167C122.197 22.0167 120.256 20.4381 120.013 17.6285H134.053C134.154 17.0151 134.2 16.3956 134.194 15.7742V15.7761ZM120.047 14.4053C120.425 11.8016 122.266 10.3249 124.588 10.3249C127.086 10.3249 129.096 11.9035 129.167 14.4053H120.047Z" fill="#606060"/>
<path d="M136.144 0.315918V25.6837H141V0.315918H136.144Z" fill="#606060"/>
</g>
<defs>
<clipPath id="clip0_770_317">
<rect width="141" height="32" fill="white"/>
</clipPath>
</defs>
</svg>
