<svg width="144" height="37" viewBox="0 0 144 37" fill="none" xmlns="http://www.w3.org/2000/svg">
<g clip-path="url(#clip0_770_299)">
<path opacity="0.9" d="M36.5328 30.2297C36.0169 29.3464 35.063 28.7882 34.0384 28.7882H17.906L20.3509 24.5625H34.0666C36.5822 24.5625 38.9283 25.9122 40.1861 28.0886L41.4439 30.265L38.6597 33.9112L36.5328 30.2226V30.2297Z" fill="#181321"/>
<path opacity="0.9" d="M13.5955 36.1018L16.0616 31.8408H33.9393L36.3913 36.1018H13.5955Z" fill="#181321"/>
<path opacity="0.9" d="M15.5035 9.65963C14.2245 7.49028 14.2033 4.78389 15.447 2.59333L16.9521 0L21.729 0.0141326L19.1427 4.64963C18.641 5.54705 18.648 6.64939 19.1639 7.53268L27.3396 21.4392L22.4497 21.4745L15.4965 9.65257L15.5035 9.65963Z" fill="#181321"/>
<path opacity="0.9" d="M21.835 6.07687L24.2658 1.80176L35.8192 21.4531L30.894 21.4955L21.835 6.07687Z" fill="#181321"/>
<path opacity="0.9" d="M2.32481 36.0878L0 31.9187L5.31386 31.8975C6.34554 31.8975 7.29949 31.3463 7.8224 30.463L15.9345 16.5142L18.3653 20.7539L11.4686 32.6112C10.2108 34.7735 7.87186 36.1231 5.37039 36.1231L2.33895 36.0807L2.32481 36.0878Z" fill="#181321"/>
<path opacity="0.9" d="M0.311035 28.8307L11.7796 9.12988L14.2246 13.405L5.22918 28.859L0.311035 28.8307Z" fill="#181321"/>
<g opacity="0.9">
<path d="M61.2083 4.78369H65.4269L76.3019 31.4802H72.3942L69.8009 25.0216H56.7212L54.1279 31.4802H50.3333L61.2083 4.78369ZM68.4866 21.7357L63.2646 8.65602L58.0426 21.7357H68.4866Z" fill="#181321"/>
<path d="M79.5525 11.7513H82.8807V15.5036C84.3929 12.9526 86.8661 11.4404 89.9611 11.4404H90.583V14.8817H89.9611C85.5518 14.8817 82.8807 17.5104 82.8807 21.5735V31.4805H79.5525V11.7513Z" fill="#181321"/>
<path d="M94.1372 3.625H97.4654V21.9267L107.408 11.7512H111.662L102.998 20.57L111.973 31.4804H107.676L100.631 22.9655L97.4583 26.2513V31.4733H94.1301V3.625H94.1372Z" fill="#181321"/>
<path d="M114.834 3.625H118.163V31.4804H114.834V3.625Z" fill="#181321"/>
<path d="M122.572 21.6156C122.572 15.7364 127.102 11.2847 133.058 11.2847C139.015 11.2847 143.545 15.7364 143.545 21.6156C143.545 22.082 143.509 22.5837 143.467 23.0077H126.133C126.713 26.4913 129.497 28.8868 133.214 28.8868C135.963 28.8868 138.358 27.5725 139.482 25.601H143.199C141.651 29.3956 137.821 31.9465 133.179 31.9465C127.102 31.9465 122.579 27.4948 122.579 21.6156H122.572ZM126.169 20.0327H140.019C139.439 16.7469 136.655 14.3444 133.051 14.3444C129.448 14.3444 126.819 16.6692 126.162 20.0327H126.169Z" fill="#181321"/>
</g>
</g>
<defs>
<clipPath id="clip0_770_299">
<rect width="143.545" height="36.13" fill="white"/>
</clipPath>
</defs>
</svg>
