<svg width="179" height="36" viewBox="0 0 179 36" fill="none" xmlns="http://www.w3.org/2000/svg">
<path d="M0 0H35.7327V36H0V0Z" fill="#FF5A00"/>
<path d="M100.069 7.12891C100.396 7.15861 100.456 7.54474 100.485 7.78237C100.574 9.00019 100.604 10.1883 100.604 11.4061C100.663 12.5646 100.663 13.6933 100.663 14.8517C101.317 14.3467 101.941 13.8121 102.713 13.5151C103.931 12.9804 105.416 12.9804 106.604 13.6042C107.881 14.2576 108.772 15.5051 109.218 16.8418C109.634 18.119 109.753 19.4853 109.663 20.822C109.545 22.3962 109.129 23.9705 108.208 25.2477C107.673 25.9903 106.961 26.6438 106.069 26.9705C104.644 27.4755 103.069 27.2972 101.792 26.4953C101.406 26.2576 101.05 25.9012 100.693 25.6042C100.545 26.0794 100.426 26.525 100.277 27.0002C99.5942 27.0002 98.9407 27.0596 98.2575 26.9408C98.5249 25.8715 98.5249 24.7428 98.5546 23.6438C98.614 19.7527 98.5546 15.8616 98.5249 12.0002C98.4358 10.4853 98.5546 8.97049 98.2872 7.48534C98.911 7.30712 99.4754 7.12891 100.069 7.12891ZM105.06 15.1487C104.465 15.0299 103.871 15.0299 103.277 15.0893C102.208 15.2378 101.347 15.9804 100.663 16.7527C100.634 17.02 100.663 17.2576 100.634 17.525V23.7032C100.604 23.9111 100.782 24.0596 100.931 24.1784C101.97 25.1883 103.515 25.6636 104.941 25.3071C105.624 25.1289 106.218 24.6834 106.545 24.0596C107.05 23.1982 107.228 22.1883 107.317 21.2081C107.376 20.4656 107.465 19.6933 107.376 18.9507C107.347 18.0893 107.168 17.1685 106.723 16.4259C106.366 15.8022 105.772 15.2972 105.06 15.1487ZM113.911 7.66356C114.327 7.51504 114.802 7.54475 115.218 7.72297C115.604 7.96059 115.871 8.31702 116.05 8.73287C116.317 9.62396 115.604 10.6339 114.683 10.7527C113.97 10.8418 113.198 10.4259 112.99 9.71306C112.693 8.94078 113.139 7.99029 113.911 7.66356ZM50.5545 9.29722C51.5644 8.61405 52.7525 8.0794 54.0001 8.0794C55.2773 8.04969 56.5842 8.1388 57.7426 8.70316C58.2179 8.91108 58.6931 9.14871 59.109 9.50515C58.812 10.0101 58.4258 10.4556 58.0694 10.9012C57.5941 10.6339 57.1486 10.3368 56.6436 10.1586C55.3961 9.71306 53.9704 9.62395 52.7228 10.1289C51.6832 10.5447 50.8218 11.3467 50.2872 12.3269C49.9308 13.0101 49.604 13.7527 49.4555 14.525C49.3367 15.2675 49.2773 16.0398 49.2476 16.8121C49.2179 17.822 49.1585 18.8616 49.2179 19.8715C49.3961 21.2972 49.8714 22.723 50.8516 23.7923C51.6832 24.7725 52.9308 25.3368 54.208 25.4557C54.8615 25.4854 55.5446 25.4854 56.1981 25.3368C57.0001 25.1586 57.6832 24.7428 58.4258 24.416C58.8417 24.8319 59.2278 25.3071 59.5842 25.8121C59.0496 26.1091 58.4852 26.4061 57.8912 26.6438C56.3466 27.2675 54.5941 27.2972 52.9605 27.119C51.7723 26.8814 50.6733 26.2576 49.7525 25.4854C48.6832 24.5646 47.911 23.3467 47.4654 22.0101C47.1387 21.119 46.9902 20.1685 46.9011 19.2477C46.8714 18.5349 46.7822 17.8517 46.8713 17.1388C46.9011 15.8022 47.109 14.4952 47.6436 13.2477C48.2377 11.7032 49.1882 10.2477 50.5545 9.29722Z" fill="#FF5A00"/>
<path d="M10.604 8.97025C10.7525 8.94055 10.9307 8.88114 11.0793 8.88114C11.8515 8.85144 12.6238 8.91084 13.3961 8.94054C13.5149 8.91084 13.5743 9.02965 13.604 9.11876C14.7624 11.5247 15.9208 13.9604 17.109 16.3663C17.3763 16.8712 17.5842 17.3762 17.8812 17.8514C18.1189 17.4653 18.3268 17.0495 18.5347 16.6336C19.8713 14.0495 21.1189 11.4653 22.4258 8.88114C23.2872 8.91085 24.1486 8.82173 25.01 8.97025C24.8614 9.4752 24.5644 9.89104 24.3565 10.3663C22.6337 13.6633 20.8812 16.9604 19.1585 20.2574C19.0991 20.3762 19.0694 20.5247 19.0694 20.6732C19.0694 23.0198 19.0694 25.396 19.0694 27.7425C18.2377 27.7425 17.406 27.7425 16.5743 27.7425C16.5743 25.4554 16.5743 23.1386 16.5743 20.8514C16.5743 20.6138 16.604 20.3465 16.4555 20.1089C14.8515 17.1089 13.2773 14.1089 11.6733 11.0792C11.3169 10.3663 10.9307 9.68312 10.604 8.97025Z" fill="#FFFEFE"/>
<path d="M148.782 10.0098C149.465 9.80191 150.178 9.62369 150.891 9.50488C150.772 10.8118 150.683 12.1187 150.654 13.4554C151.753 13.4851 152.881 13.4851 153.98 13.5148C153.802 14.0197 153.594 14.5247 153.357 14.9999C152.406 14.9999 151.485 14.9999 150.535 14.9999C150.535 16.2178 150.535 17.4356 150.535 18.6534C150.535 19.6039 150.594 20.5841 150.564 21.5346C150.594 22.6336 150.535 23.7326 150.654 24.8019C150.683 25.2475 151.099 25.5742 151.485 25.693C152.168 25.8415 152.881 25.7821 153.535 25.6336C153.713 26.0197 153.802 26.4653 153.772 26.8811C153.178 27.2079 152.465 27.2673 151.782 27.3267C150.832 27.3564 149.762 27.2079 149.079 26.4653C148.515 25.9306 148.574 25.099 148.485 24.3861C148.426 22.8415 148.456 21.2673 148.426 19.7227C148.426 18.1485 148.426 16.5445 148.426 14.9702C147.832 14.9702 147.238 14.9702 146.644 14.9702C146.614 14.4653 146.614 13.9306 146.644 13.4257C147.238 13.4257 147.802 13.4257 148.396 13.4257C148.604 12.297 148.604 11.1385 148.782 10.0098ZM67.5743 13.1286C68.1386 13.1583 68.703 13.1286 69.2376 13.3069C70.4852 13.7227 71.5248 14.5841 72.1782 15.7128C72.7426 16.693 73.1287 17.792 73.1584 18.9207C73.2178 20.4356 73.2772 22.0098 72.802 23.4653C72.3565 24.8316 71.406 26.0495 70.099 26.7326C68.8218 27.3861 67.2772 27.5346 65.9109 27.1485C64.6634 26.8217 63.5941 25.99 62.8812 24.9207C62.0792 23.7623 61.8119 22.3663 61.7822 20.9702C61.7525 19.6336 61.7228 18.2673 62.1683 16.99C62.5842 15.7425 63.3862 14.5841 64.5149 13.8712C65.0198 13.5445 65.5842 13.2772 66.1782 13.1583C66.6535 13.0989 67.1287 13.1286 67.5743 13.1286ZM66.505 14.8514C65.7921 15.0296 65.1089 15.4455 64.7228 16.0692C64.1584 16.99 64.0693 18.089 64.0099 19.1287C63.9505 19.9009 64.0099 20.6732 64.0693 21.4455C64.1881 22.3663 64.3663 23.3465 64.8119 24.1782C65.2871 25.0693 66.297 25.5148 67.2772 25.5742C68.198 25.6336 69.2079 25.396 69.8614 24.6831C70.3961 24.089 70.6931 23.3465 70.8119 22.5445C70.9604 21.5643 70.9307 20.5841 70.901 19.6039C70.8713 18.594 70.7822 17.5247 70.3664 16.5742C70.1287 15.9801 69.6832 15.4752 69.1188 15.1781C68.3466 14.7029 67.3664 14.6435 66.505 14.8514ZM76.8713 13.5742C77.4951 13.3663 78.1188 13.2178 78.7723 13.0989C79.0396 13.693 79.1881 14.3465 79.2476 14.9999C79.6931 14.7623 80.0198 14.4059 80.4357 14.1385C81.3565 13.4554 82.4852 13.0395 83.6436 13.0989C83.9109 13.1286 84.1485 13.1881 84.3862 13.3069C84.7723 13.5148 85.1881 13.7227 85.5149 14.0197C85.8416 14.3465 86.0792 14.7623 86.3169 15.1781C86.8515 14.9405 87.2377 14.5247 87.7129 14.198C88.5149 13.6336 89.4357 13.188 90.4456 13.0989C91.3664 13.0098 92.2872 13.3069 92.9703 13.9306C93.2674 14.2277 93.5941 14.5247 93.7426 14.9108C93.8911 15.297 93.9505 15.7128 93.9802 16.1286C94.1288 18.297 94.0396 20.495 94.1288 22.6633C94.1288 24.1188 94.1288 25.5445 94.1288 26.9999C93.4159 26.9999 92.703 27.0297 91.9604 26.9999C91.9604 24.8316 91.9604 22.6633 91.9604 20.495C91.9604 19.099 91.9901 17.7029 91.8713 16.3069C91.8119 15.8613 91.5743 15.4455 91.2179 15.1781C90.802 14.9108 90.2674 14.9405 89.7921 14.9702C88.9307 15.0593 88.2476 15.594 87.5941 16.0989C87.2971 16.3663 86.9703 16.6039 86.6733 16.8712C86.5842 16.9306 86.6139 17.0791 86.6139 17.1683C86.6139 20.4356 86.6139 23.7029 86.6139 26.9702C85.901 26.9702 85.1881 26.9702 84.4753 26.9702V19.3366C84.4753 18.7128 84.4753 18.089 84.4456 17.495C84.4159 16.8712 84.4753 16.1881 84.1782 15.6237C83.7327 14.9999 82.8713 14.8811 82.1882 15.0593C81.1188 15.3267 80.1683 15.9801 79.3664 16.7227C79.2476 16.8118 79.2476 16.9603 79.2476 17.1088C79.2476 20.4059 79.2476 23.7029 79.2476 26.9999C78.6238 27.0297 78 27.0297 77.3763 26.9999C77.3169 23.6435 77.3466 20.2574 77.2575 16.8712C77.2277 16.0989 77.2277 15.3267 77.1386 14.5841C77.0495 14.2277 76.9307 13.9009 76.8713 13.5742ZM113.406 13.4554C114.089 13.3663 114.772 13.2475 115.456 13.0989C115.545 14.9999 115.515 16.9009 115.515 18.8019C115.515 21.5346 115.515 24.2673 115.515 26.9999C114.802 27.0297 114.089 27.0297 113.376 26.9999C113.347 23.0792 113.376 19.1881 113.376 15.2673C113.406 14.6732 113.376 14.0494 113.406 13.4554ZM140.941 13.1881C142.396 13.4554 143.644 14.792 143.673 16.3069C143.762 18.5643 143.644 20.8217 143.673 23.0791V23.7623C143.673 24.2079 143.703 24.6534 143.822 25.099C143.911 25.5445 144.327 25.7821 144.654 26.0494C144.357 26.4653 144.089 26.9405 143.703 27.297C143.465 27.5049 143.168 27.2673 142.99 27.1485C142.485 26.7623 142.129 26.198 141.832 25.6336C141.357 25.9009 141.03 26.2871 140.555 26.5544C139.782 27.0594 138.861 27.3564 137.911 27.3267C137.079 27.3564 136.218 27.2079 135.475 26.8217C134.258 26.1683 133.574 24.7425 133.604 23.4059C133.604 22.099 134.258 20.8217 135.297 20.0494C136.545 19.099 138.149 18.8019 139.663 18.6831C140.347 18.6237 141.059 18.6237 141.772 18.594C141.802 17.9108 141.743 17.2277 141.654 16.5445C141.564 15.9801 141.297 15.3861 140.762 15.089C140.139 14.7623 139.396 14.7326 138.683 14.8514C137.376 14.9999 136.159 15.5643 135.089 16.3366C134.792 15.9207 134.495 15.5346 134.258 15.089C134.139 14.8811 134.317 14.7029 134.495 14.6138C135.921 13.8118 137.495 13.1286 139.158 13.1583H139.871C140.228 13.1286 140.584 13.1286 140.941 13.1881ZM140.05 19.99C139.396 20.0494 138.713 20.0791 138.089 20.2574C137.317 20.4653 136.604 20.9702 136.188 21.6534C135.951 22.0395 135.951 22.5148 135.921 22.9603C135.921 23.4356 135.861 23.9702 136.04 24.4158C136.218 24.891 136.545 25.3366 137.02 25.5148C137.555 25.7524 138.178 25.7821 138.772 25.7227C139.485 25.6336 140.109 25.2475 140.644 24.8316C141.089 24.4455 141.535 23.9702 141.564 23.3465C141.654 22.2475 141.624 21.1485 141.654 20.0494C141.119 20.0494 140.584 19.9306 140.05 19.99ZM163.337 13.2178C164.555 13.5148 165.654 14.2574 166.366 15.2673C166.961 16.0989 167.347 17.0494 167.525 18.0593C167.673 19.0098 167.733 19.99 167.673 20.9405C167.644 22.5148 167.168 24.0891 166.218 25.3366C165.446 26.3465 164.258 26.9405 163.04 27.1782C161.555 27.4455 159.951 27.1782 158.703 26.2871C157.604 25.5148 156.921 24.2673 156.535 23.0197C156.327 22.3663 156.297 21.7128 156.238 21.0296C156.208 19.9009 156.208 18.7722 156.416 17.6732C156.713 16.4257 157.337 15.2079 158.287 14.3168C159 13.6633 159.891 13.2475 160.842 13.1286C161.673 13.0395 162.505 13.0692 163.337 13.2178ZM160.99 14.8217C159.98 14.9405 159.178 15.7425 158.852 16.6633C158.436 17.6435 158.495 18.7128 158.465 19.7524C158.495 20.7326 158.495 21.7128 158.673 22.693C158.792 23.3465 159 23.9999 159.446 24.5049C159.861 25.0098 160.485 25.3366 161.109 25.4554C161.347 25.5148 161.614 25.5445 161.852 25.5445H162.089L162.327 25.5148C162.832 25.4554 163.307 25.3069 163.753 25.0693C164.287 24.7722 164.673 24.2079 164.881 23.6435C165.149 22.9603 165.178 22.2178 165.238 21.5049C165.267 20.6435 165.297 19.7821 165.238 18.9207C165.178 18.0296 165.06 17.1088 164.644 16.3069C164.258 15.7128 163.723 15.2079 163.069 14.9108C162.446 14.7326 161.703 14.7326 160.99 14.8217ZM171.327 13.6039C171.98 13.4257 172.604 13.2178 173.258 13.0692C173.614 13.7227 173.673 14.495 173.703 15.2079C174.03 14.9702 174.297 14.6435 174.594 14.3465C175.515 13.4257 176.881 12.8613 178.188 13.0989V13.2772C177.891 13.9009 177.713 14.5841 177.446 15.2376C177.416 15.3564 177.238 15.3267 177.149 15.3267C176.584 15.3267 175.961 15.3267 175.456 15.6237C174.951 15.9207 174.505 16.3069 174.149 16.7821C173.792 17.2277 173.852 17.8514 173.852 18.3861C173.822 19.1584 173.792 19.9306 173.822 20.7029C173.822 22.7821 173.822 24.891 173.822 26.9702C173.109 26.9999 172.396 26.9999 171.683 26.9702C171.683 24.6534 171.683 22.3069 171.683 19.99C171.683 18.4158 171.683 16.8118 171.624 15.2376C171.564 14.7029 171.386 14.1683 171.327 13.6039ZM119.733 13.6336C120.357 13.4257 121.01 13.1881 121.663 13.1881C121.901 13.8118 122.05 14.4653 122.139 15.1187C122.703 14.7623 123.178 14.2871 123.772 13.9603C124.901 13.3069 126.267 12.8316 127.545 13.3069C128.287 13.5742 129.03 13.99 129.475 14.6732C129.832 15.1485 129.921 15.8019 129.98 16.396C130.099 18.5049 130.069 20.6138 130.069 22.7524C130.069 24.1782 130.099 25.5742 130.099 26.9999C129.386 27.0297 128.673 27.0297 127.96 26.9999C127.96 24.6831 127.901 22.3366 127.901 20.0197C127.871 18.7128 127.931 17.4356 127.782 16.1286C127.574 15.5049 126.98 14.9999 126.327 14.9702C125.852 14.9405 125.347 14.9405 124.871 15.1187C123.861 15.5049 122.941 16.1286 122.109 16.8118C122.079 20.198 122.109 23.6138 122.109 26.9999C121.485 26.9999 120.861 27.0297 120.238 26.9999C120.238 25.0693 120.178 23.1386 120.178 21.2079C120.149 19.2178 120.178 17.2574 120.059 15.2673C120.03 14.7029 119.852 14.1683 119.733 13.6336Z" fill="#FF5A00"/>
</svg>
